<?xml version="1.0" encoding="utf-8"?>
<!-- Generator: Adobe Illustrator 23.0.0, SVG Export Plug-In . SVG Version: 6.00 Build 0)  -->
<!DOCTYPE svg PUBLIC "-//W3C//DTD SVG 1.1//EN" "http://www.w3.org/Graphics/SVG/1.1/DTD/svg11.dtd" [
	<!ENTITY ns_extend "http://ns.adobe.com/Extensibility/1.0/">
	<!ENTITY ns_ai "http://ns.adobe.com/AdobeIllustrator/10.0/">
	<!ENTITY ns_graphs "http://ns.adobe.com/Graphs/1.0/">
	<!ENTITY ns_vars "http://ns.adobe.com/Variables/1.0/">
	<!ENTITY ns_imrep "http://ns.adobe.com/ImageReplacement/1.0/">
	<!ENTITY ns_sfw "http://ns.adobe.com/SaveForWeb/1.0/">
	<!ENTITY ns_custom "http://ns.adobe.com/GenericCustomNamespace/1.0/">
	<!ENTITY ns_adobe_xpath "http://ns.adobe.com/XPath/1.0/">
]>
<svg version="1.1" id="Layer_1" xmlns:x="&ns_extend;" xmlns:i="&ns_ai;" xmlns:graph="&ns_graphs;"
	 xmlns="http://www.w3.org/2000/svg" xmlns:xlink="http://www.w3.org/1999/xlink" x="0px" y="0px" viewBox="0 0 844.8 282.5"
	 style="enable-background:new 0 0 844.8 282.5;" xml:space="preserve">
<metadata><?xpacket begin="﻿" id="W5M0MpCehiHzreSzNTczkc9d"?>
<x:xmpmeta xmlns:x="adobe:ns:meta/" x:xmptk="Adobe XMP Core 5.6-c145 79.163499, 2018/08/13-16:40:22        ">
   <rdf:RDF xmlns:rdf="http://www.w3.org/1999/02/22-rdf-syntax-ns#">
      <rdf:Description rdf:about=""
            xmlns:xmp="http://ns.adobe.com/xap/1.0/"
            xmlns:xmpGImg="http://ns.adobe.com/xap/1.0/g/img/"
            xmlns:xmpTPg="http://ns.adobe.com/xap/1.0/t/pg/"
            xmlns:stDim="http://ns.adobe.com/xap/1.0/sType/Dimensions#"
            xmlns:xmpG="http://ns.adobe.com/xap/1.0/g/"
            xmlns:dc="http://purl.org/dc/elements/1.1/">
         <xmp:CreatorTool>Adobe Illustrator CC 23.0 (Macintosh)</xmp:CreatorTool>
         <xmp:CreateDate>2019-05-27T20:38:18+02:00</xmp:CreateDate>
         <xmp:Thumbnails>
            <rdf:Alt>
               <rdf:li rdf:parseType="Resource">
                  <xmpGImg:width>256</xmpGImg:width>
                  <xmpGImg:height>84</xmpGImg:height>
                  <xmpGImg:format>JPEG</xmpGImg:format>
                  <xmpGImg:image>/9j/4AAQSkZJRgABAgEBLAEsAAD/7QAsUGhvdG9zaG9wIDMuMAA4QklNA+0AAAAAABABLAAAAAEA&#xA;AQEsAAAAAQAB/+4ADkFkb2JlAGTAAAAAAf/bAIQABgQEBAUEBgUFBgkGBQYJCwgGBggLDAoKCwoK&#xA;DBAMDAwMDAwQDA4PEA8ODBMTFBQTExwbGxscHx8fHx8fHx8fHwEHBwcNDA0YEBAYGhURFRofHx8f&#xA;Hx8fHx8fHx8fHx8fHx8fHx8fHx8fHx8fHx8fHx8fHx8fHx8fHx8fHx8fHx8f/8AAEQgAVAEAAwER&#xA;AAIRAQMRAf/EAaIAAAAHAQEBAQEAAAAAAAAAAAQFAwIGAQAHCAkKCwEAAgIDAQEBAQEAAAAAAAAA&#xA;AQACAwQFBgcICQoLEAACAQMDAgQCBgcDBAIGAnMBAgMRBAAFIRIxQVEGE2EicYEUMpGhBxWxQiPB&#xA;UtHhMxZi8CRygvElQzRTkqKyY3PCNUQnk6OzNhdUZHTD0uIIJoMJChgZhJRFRqS0VtNVKBry4/PE&#xA;1OT0ZXWFlaW1xdXl9WZ2hpamtsbW5vY3R1dnd4eXp7fH1+f3OEhYaHiImKi4yNjo+Ck5SVlpeYmZ&#xA;qbnJ2en5KjpKWmp6ipqqusra6voRAAICAQIDBQUEBQYECAMDbQEAAhEDBCESMUEFURNhIgZxgZEy&#xA;obHwFMHR4SNCFVJicvEzJDRDghaSUyWiY7LCB3PSNeJEgxdUkwgJChgZJjZFGidkdFU38qOzwygp&#xA;0+PzhJSktMTU5PRldYWVpbXF1eX1RlZmdoaWprbG1ub2R1dnd4eXp7fH1+f3OEhYaHiImKi4yNjo&#xA;+DlJWWl5iZmpucnZ6fkqOkpaanqKmqq6ytrq+v/aAAwDAQACEQMRAD8A9U4q7FXnX5ifn5+W3kRp&#xA;LbU9Q+uatHsdJsQJrgHwk3WOP/ZsD4DFXz15u/5zR8637PF5Z0u10W3Oyzz1vLn5ioSJfkUb54q8&#xA;6f8AMr89/Oly8VtrGuanK1OdtpnrKp8Kw2aov/C4qj4PyI/5yB1pGd9Cv5BIKv8AXbmKEsBSlRcz&#xA;Rk9v8xiqM/6FP/O3/qzwf9Jlt/1UxV9Qf843eQ/M3kj8vZNG8xW622oNfz3AjSRJR6bpGqnlGWHV&#xA;DirJfzL/ADS8tfl1pVrqmvrcvbXc/wBWiFrGsjc+DPuGZNqIcVYVYf8AOWv5LXTKJtRurLkASbi0&#xA;mIBPY+iJemKvQvK/5ieRvNSj/D2uWeoyUqYIpV9YDrVoWpIv0rirIsVdirAfzO/Ovyd+XE+nweYU&#xA;u3fUlke3+qRLIKQlQ3Lk8dPtjFU6/L7z/oXnvy4nmDRFnWxeWSFRcoI5OURo3wqzin04qyTFXYq7&#xA;FXm35k/n95G/LzXYNF1+O9e8uLVL2M2sKSJ6TySRCpaRPi5Qt2xVmHk3zZpfm7yzY+YtKEq6fqCs&#xA;8AnUJJRHaM8lBYDdD3xVOcVdiqW+ZdfsfLvl/UNdvw5stMge5uBEAz8I15NxUlQTT3xVgP5ff85F&#xA;eQPPfmNPL+iR363zxSTKbmFI4+MQq3xLI5r9GKvUMVdirD/PX5t/l/5GiY+YdXiguuPJNOi/fXb1&#xA;FVpClWAbszUX3xVk+l6lZ6pplpqdjIJbK+hjuLaUdGjlUOjfSpxVI/Nn5k+RvKM0MPmTWYNMmuEa&#xA;WCOblydFNCVChq74qxO4/wCcnPyNg+15nRyRUCO1vZPxWEgfTiqV3H/OW/5LxU4X93PWtfTtJRT/&#xA;AIMJirNvy0/NLy1+YulXWqaAtyltaT/VpRdRrG3Pgr7BWfajjFWWTzwW8Ek88ixQRKXllchURFFW&#xA;ZmOwAG5JxV8e/nn/AM5T6prFzc+XfIlw1joqForjWYyVuLrsfROxii9x8Tf5I2Krxz8v/wAs/OX5&#xA;g6wbDy/aNOVIa8vpSVt4A37U0pB69gKsewOKvrT8vP8AnEj8vvL0UVz5jB8yasKMwnqlmjeCQA/G&#xA;P+MhIP8AKMVZv51/M78svyt0yK2v5YbEheVnoenRJ67L/kQJwVFP8zlV98VeCeY/+c3ddeZl8teX&#xA;LW3hB+CXUpJJ2YeJjhMAX5czirGB/wA5k/m5X+50o+31aX/qtir6X/IL8ytc/MPyK+v61Ba294l7&#xA;Na+nZrIkXCNI2BpI8rV+M/tYq89/5za/5QHQv+2qP+oaXFXiP5N/kBcfmd5e1bULPWE02902dII4&#xA;JoTJFLzTl8TqwZP+BbFWMee/yt/ML8t9SibWrSS1USf6Dq9q5a3d13BimWhVtqhW4t3pir23/nH7&#xA;/nJ/VW1S08p+e7r63BdssGna5Kf3scrbJHct+2jHYSH4gftEjdVX1lir5L/5zj/46vlH/jBe/wDE&#xA;4cVelf8AOIX/AJJu2/5jrv8A4kMVe1Yq7FXYq+K/+c1f/Jp6V/2w7f8A6jLvFX0V/wA43f8AkkvK&#xA;3/GCb/qJlxV6VirsVYV+df8A5KPzf/2yrr/k0cVfJX/OIf8A5OW2/wCYG7/4iMVfc800MEMk88ix&#xA;QxKXllchVVVFWZmOwAHU4q+S/wA6v+ctL66nn0H8vJTbWS1juPMFKTS9iLUN/dr/AJZHI/s8epVe&#xA;O+RPyl/Mf8yr+S50q0knhkkJvNbvXZYA7GrF5m5NI1TuEDN7Yq+7fyr8nan5N8iaX5a1LUV1S405&#xA;GQXSRmMBGcusYBZiRGG4g7bAbDFXzZ/zm9/ylXlr/mBm/wCT2KsO/Lj/AJxi82+fPKdr5l07VbC1&#xA;tLp5USG4M3qAwyGM14Rsu5XxxVk3/Qkvn/8A6vulffc/9UsVe6f84+flHr35aaHqum6vfW16b65S&#xA;4h+qmTitIwjV9RU3NB0xV5d/zmD+bdxC6fl3pEpjDolxr8qGhKv8UNt8iKSP4jiPEYq8K/J/8rdU&#xA;/MfzfDotsxgsIh6+q31K+jbggHjXq7n4UHjv0BxV+gnlPyl5f8p6Fb6HoNolnp9sPhRd2dj9qSRj&#xA;u7tTdjirAv8AnIX84/8AlXHlRBp/F/Mmrc4dLVgGEQUD1LllNQwj5DiD1YjtXFXwXqmq6lq2o3Gp&#xA;ancyXl/dOZLi5mYvI7HuzHFUJirsVfb/APzht/5KOb/tq3P/ACahxVKv+c2v+UB0L/tqj/qGlxVC&#xA;/wDOEP8Ayi3mX/mOh/5M4q+hde0HR9f0i60fWLWO9028Qx3FvKKqwPcdww6hhuDuMVfnb+bn5eXP&#xA;5fefL/y88jS20ZWfTrltmktpd42NKfEu6NT9pTir7r/JTzVceavys8u63dSereTWvo3cp+081s7W&#xA;8jt7u0RY/PFXgP8AznH/AMdXyj/xgvf+Jw4q9K/5xC/8k3bf8x13/wASGKvasVdirsVfFf8Azmr/&#xA;AOTT0r/th2//AFGXeKvor/nG7/ySXlb/AIwTf9RMuKvSsVdirCvzr/8AJR+b/wDtlXX/ACaOKvkr&#xA;/nEP/wAnLbf8wN3/AMRGKvX/APnMn8wr7R/LWneUtPkMT696kuoyLsfqsBUCKvhK7b+y06HFXln/&#xA;ADjR+Q1r57upvMfmJWPlnTpfRitQSpu7hQHZGI3ESKw5U6k0B64q+2LKys7G0hs7KCO2tLdRHBbw&#xA;qEjRF2CqqgAAe2Kq2KvkD/nN7/lKvLX/ADAzf8nsVewf84n/APkktI/4z3n/AFEvir1/FXYq/Mjz&#xA;15im8yec9b12Vy51G9mnQntGzn01HsqUUYq+zf8AnErydBof5VQasyAX/mKZ7udyPi9GNmhgSv8A&#xA;KFUuP9c4q9qxV80f85F/kd+Z/wCYHnyLVNGS2k0m1sorW2E1wIiGDPJIeBHdn6/LFXln/Qof5y/8&#xA;s1j/ANJa/wBMVd/0KH+cv/LNY/8ASWv9MVYD+Yf5YecPy/1G3sfMlskEl3GZrWWKRZY5FU8Woy91&#xA;PUHFX1n/AM4bf+Sjm/7atz/yahxVKv8AnNr/AJQHQv8Atqj/AKhpcVQv/OEP/KLeZf8AmOh/5M4q&#xA;+lMVfFX/ADmjf2Vx+Z2nW0JDXFnpUSXRFKqzzTSIh77Kwb/ZYq9+/wCcW7C4s/yS0D114NcNdTop&#xA;68JLqTgf9kvxfI4q8i/5zj/46vlH/jBe/wDE4cVelf8AOIX/AJJu2/5jrv8A4kMVezXV1bWltLdX&#xA;UqQW1ujSzzyMFRI0HJnZjsAoFSTirz7y9/zkH+UnmDzDHoGl66smozyelaiSGaKOaToFjlkRUJb9&#xA;nf4u1cVei4q+K/8AnNX/AMmnpX/bDt/+oy7xV9Ff843f+SS8rf8AGCb/AKiZcVelYq7FWFfnX/5K&#xA;Pzf/ANsq6/5NHFXyV/ziH/5OW2/5gbv/AIiMVZ5/zm55YvPrXl3zRGhaz9OTTbmQdEkDGaEH/XDS&#xA;f8DiqO/5w7/NHQ49Il8gahKtrqYuJLrSmchVuElALxKT/uxGUsB3B26HFX1BirsVfIH/ADm9/wAp&#xA;V5a/5gZv+T2KvYP+cT//ACSWkf8AGe8/6iXxV6/irsVfldLFJDK8Ui8ZI2KOp6hlNCMVfop+Q17b&#xA;3n5O+Uprc1RdPjhJH88BMMn/AA6HFWe4q7FXYq7FXyJ/zm/e2kmv+V7SOZHure2unnhVgXRZXj4F&#xA;h25cGp8sVejf84bf+Sjm/wC2rc/8mocVSr/nNr/lAdC/7ao/6hpcVQv/ADhD/wAot5l/5jof+TOK&#xA;vTfzd/PLyl+XWmTCeeO+8xMn+haLE4MhYj4WmpX0o+9Tuf2a4q+NfKXlnzf+c35mymZ2kutRn+t6&#xA;1qIX93bW9QGYA7AKtEiSvgMVfoNpGlWOkaVZ6VYR+lY2EEdtaxD9mKJQiD7hir5W/wCc4/8Ajq+U&#xA;f+MF7/xOHFXpX/OIX/km7b/mOu/+JDFWffmv5Y1PzR+XOv6Bpcgj1C/tWS2qeIZ1IcRluwk48Cff&#xA;FXxD5I/JH80tR87WOm/oC/01ra6ia7vrmGSCG3RHDGT1WCqaAVXiSW/Zrir9CsVfFf8Azmr/AOTT&#xA;0r/th2//AFGXeKvor/nG7/ySXlb/AIwTf9RMuKvSsVdirCvzr/8AJR+b/wDtlXX/ACaOKvkr/nEP&#xA;/wAnLbf8wN3/AMRGKvtPzb5U0TzZ5evNA1uD6xp18nCVejKQaq6N+y6MAynxxV8Gfm3+Svm78sdZ&#xA;EziS50Rpa6ZrsAKrUHkiyFf7qYUrTv1Unsq9Y/JT/nLSeA2+gfmHIZofhjtvMQFXQdALtQPjH/Fg&#xA;3/mB3bFX1fBPBcQRzwSLLBKoeKVCGR0YVVlYbEEbgjFXyH/zm9/ylXlr/mBm/wCT2KvE9F81fmhp&#xA;elQwaJrGt2Ok8n+rxWVzdw2/ItV+CxMqV5HenfFV83nP81WLzTa7rpP2nke6vD06kkvir7u/I28v&#xA;L38pPK91eTyXN1NZK0s8ztJI7cm3ZmJJPzxV8Ufn75Mn8p/mprlk0ZSzvZ21HT2pRWgumMgC+yPy&#xA;j/2OKvbP+cNvzOt/qt1+X2ozBJ1d7zQ+RpzVhyuIF91I9QDvVvDFX1Lir40/5zR8qXln5503zKqk&#xA;2Gq2a25k6hbi1Y8lPhWN0I8d/DFXztirsVdir7e/5w0dG/KW4CkEpq1yrgdj6MBofoIxVK/+c2v+&#xA;UB0L/tqj/qGlxV8v+UfOn5i6ZZXOgeUr+9to9RkEk9tpykTyOo4CjxL6w22orYq9D8hf84sfmd5s&#xA;vBe+YUby/p0repPdX9WvJORq3G3J9Tl4+qV+nFX1/wDl7+W/lXyDoS6R5ftvSQ0a6upKNPcSAU5y&#xA;vQVPgBsOwGKsoxV8l/8AOcf/AB1fKP8Axgvf+Jw4q9K/5xC/8k3bf8x13/xIYq9qxV2KuxV8a/8A&#xA;ObVjIn5gaHfkH07jSRAp7coLmV2/5PjFXuX/ADi1qUd7+SWgopBks2uraYDsy3UjqOv++3U4q9Yx&#xA;V2KvOv8AnIfU0078l/NM7Nx9W1Fqvck3MqQUHX/fmKvmP/nDmxkuPzdedQeFnplzK57UZ4oh+MmK&#xA;vuHFUNqemadqlhPp+pW0d5Y3KGO4tplDxuh6hlaoOKvi3/nJD/nH228ien5l8tc28tXUvo3FpIS7&#xA;Wkz1KAMfiaJqUBbcHYk1GKvQ/wDnDL8wr/UdM1PyVfytMulIt5pTMalYJH4zRV/lSRlZf9Y+2KsY&#xA;/wCc3v8AlKvLX/MDN/yexV7B/wA4n/8AkktI/wCM95/1Evir1/FXYq8m/wCch/yYT8xfLCT6cqp5&#xA;n0kM+muSFEyNu9s7HYc6VQno3gCcVfCiNrXl7XFdfW03WdLuARUGOaCeFvA0KsrDFX2n+R//ADkv&#xA;oPnK2ttF8yzRaZ5rUCMM5EdveMNg0TH4UkbvGe/2fAKvUPPvkTy/548tXPl/XIjJaT0eOVDSSGZQ&#xA;eE0TdmWvyI2OxOKvg/8ANP8AI7zt+Xd5I1/bNeaGXpba3bqTAwP2RJ1ML/5Lf7EsN8VeeYq7FX2r&#xA;/wA4Vf8AkrNV/wC25cf9QdpiqE/5za/5QHQv+2qP+oaXFVv/ADhJDEPI2vzBFEr6mEeQAciqW8ZV&#xA;SetAXanzOKvozFXYq7FXyX/znH/x1fKP/GC9/wCJw4q9K/5xC/8AJN23/Mdd/wDEhir2rFXYq7FX&#xA;z7/zmX5Ol1XyFYeYrdC83l+5IuKDpa3fFHb6JUj+84qwr/nDD8w7ezv9T8jX0oQag31/SeRoDOic&#xA;biMf5TRqrD/VbFX1virsVfMH/OaPn+3j0zTPI1nMGup5BqGqKp+xEgKwRt/ruS9Ovwg98VVf+cKP&#xA;J8tto2uebbhKfX5EsLFj1McFXmYezO6j5qcVfTWKuxV84/8AOYX5maNaeVP8CWsiXGsalJDPfRrR&#xA;vq9vC4lTmf2XkdFovXjU9CKqsQ/5wk8t3snmXX/MxVlsreyGmq5HwvLPLHMwB7lFgFfDkPHFVv8A&#xA;zm9/ylXlr/mBm/5PYq9g/wCcT/8AySWkf8Z7z/qJfFXr+KuxV2KvLPzh/wCcfPKX5jRNff8AHK8y&#xA;ovGLVYVBEnEUVLmPb1F7A1DDxptir43/ADC/Jf8AMLyHM51vTXfTwaR6ra1mtGFaCsgH7sn+WQKf&#xA;bFWRfl7/AM5Ofmb5Pjis5Lpdc0mMBVstR5O6KO0U4IlWgFAGLKP5cVe9eXP+cxvyy1aH0PMNld6K&#xA;8i8Zg8YvLajChXlEPUYfOLFUJqmjf84c+bXN19d0vT7iUgmW3uJNM6k9YWMUY9yY8VSofkf/AM4o&#xA;V/5TiA+36b0/+mKvbfyp8u/l5oHlY2PkO6t73RjcSSS3NtcpeB7hlUPzlRmHIIqCnYUxV5P/AM5t&#xA;f8oDoX/bVH/UNLirv+cJf+UB13/tqn/qGixV9FYq7FXYq+S/+c4/+Or5R/4wXv8AxOHFXpX/ADiF&#xA;/wCSbtv+Y67/AOJDFXtWKuxV2KoTWNJsNY0q80rUYhPYX8L291C3Ro5VKsPuOKvz1/Mv8u/NP5Ue&#xA;eFhEksccU31rQNZj+H1UjYMjqw2Ekewdex9iCVX0N+W3/OYvla802G089pJpmqxKFl1GCJprWagp&#xA;6hSINJGx7qEI8D2xVF+f/wDnMTyNp2nTReTkl1vVXUi3uJIpLe0jYjZn9URyvx68Qgr/ADDFXzN5&#xA;T8s+c/zc/MEwGeS71TUpPrGq6nN8SwwggPK9KAKi0VEFOyjFX6E+VvLWleWPLun6BpMXpafp0Kww&#xA;KacjTdnYgCrOxLMe5JxVrzP5r8u+VtJk1fzBfxadp0ZCmeYndiCQiKAWdiAaKoJOKvmL81P+cxpr&#xA;mKXS/wAvbd7ZWqr67dqPUp/y7wGoX/Xk3/yQd8VeNflz+V3nj80/MUos/UkiaXnq+vXRZ44i/wAT&#xA;M7saySt2QHkfYVIVfe3kLyPofkjyvZ+XdGj42tqtZJW/vJpm3kmkPdnP3CgGwGKvmH/nN7/lKvLX&#xA;/MDN/wAnsVTv8gfz+/LHyd+WOnaDr2oy2+p28ty8sSW08oAlnZ1+JFZfstir0X/obD8kv+rvP/0h&#xA;3P8AzRirKvIH5x+QvPt5d2flm9kup7KNZrhXglhARm4ggyKtd8VZrirsVadEdGR1DIwIZSKgg7EE&#xA;HFXm/mz/AJx1/KHzMzzXWhR2N2/W604m0ap6kpH+5YnxZDiryzWf+cH9EkZm0XzTc2q9UjvbaO5N&#xA;PAvE9t9/H6MVYref84Sed0LfUvMGmTCh4mZbiGp7V4pNTFUD/wBCVfmn/wBXXQ/+ki8/7JMVfRf5&#xA;A/ltrv5eeRpNA1qe1uLx72a6Elk8jxcJEjUCsscLcvgP7OKoL/nIj8qPMX5k+WNN0rQ7iztrizvf&#xA;rUr3zyxoU9J46KYo5jWrjtirv+cd/wAqPMX5beWNS0rXLizubi8vfrUT2LyyIE9JI6MZY4TWqHti&#xA;r1bFXYq7FXh3/OR35HebPzMvdCn0G7sLZNMjuEnF9JNGWMzRleHpQzV+wa1pirL/AMify81ryB5A&#xA;i8u6zNbXF7HczzmSzaR4uMpBUVkSJq7b/Dir0LFXYq7FXYqkfnLyT5Y85aJJo3mKxS9spPiTltJF&#xA;IBQSROPiRxXqPkdqjFXzP5p/5wj1Vbp38q+YYJLRiTHb6ojxyIP5TLAsgf5+mvyxVS8u/wDOEWvP&#xA;cI3mTzFa29uDWSPTo5J3YeCvMsAX58T8sVfSfkH8uPKPkPR/0X5cshbxsQ1zcOec87j9qWQ7t7Do&#xA;OwGKsmxViX5r+R4/O/5f6x5cIUXN1CWsZH2CXUREkDE9QOagN/kk4q8P/Lr/AJwx0+2eO+8+agL5&#xA;xRv0TYMyQ/KWchZG+SBf9Y4q+kdI0bSdG06HTdJs4bGwt14w21ugjjUeyrTr3PfFUZirxz89f+cf&#xA;p/zP1LTNQg1xdLfToXg9F7YzBw78+XMSx0p4cTiryK5/5wh81qH+reZbCUj7HqwzR1Hvx9Sn44ql&#xA;lz/zhV+Zycjb6ro0ygVAM10jE+AH1cr/AMNir1D/AJxv/JDz3+XPmfVrvXzZtY31ksUb2spkPqrK&#xA;rAEMiEfDyxV7H/ysPyB/1M2lf9J1t/zXirv+Vh+QP+pm0r/pOtv+a8Vd/wArD8gf9TNpX/Sdbf8A&#xA;NeKu/wCVh+QP+pm0r/pOtv8AmvFXf8rD8gf9TNpX/Sdbf814q7/lYfkD/qZtK/6Trb/mvFXf8rD8&#xA;gf8AUzaV/wBJ1t/zXirv+Vh+QP8AqZtK/wCk62/5rxV3/Kw/IH/UzaV/0nW3/NeKu/5WH5A/6mbS&#xA;v+k62/5rxV3/ACsPyB/1M2lf9J1t/wA14q7/AJWH5A/6mbSv+k62/wCa8Vd/ysPyB/1M2lf9J1t/&#xA;zXirv+Vh+QP+pm0r/pOtv+a8Vd/ysPyB/wBTNpX/AEnW3/NeKu/5WH5A/wCpm0r/AKTrb/mvFXf8&#xA;rD8gf9TNpX/Sdbf814q7/lYfkD/qZtK/6Trb/mvFXf8AKw/IH/UzaV/0nW3/ADXirv8AlYfkD/qZ&#xA;tK/6Trb/AJrxV3/Kw/IH/UzaV/0nW3/NeKu/5WH5A/6mbSv+k62/5rxV3/Kw/IH/AFM2lf8ASdbf&#xA;814q7/lYfkD/AKmbSv8ApOtv+a8Vd/ysPyB/1M2lf9J1t/zXirv+Vh+QP+pm0r/pOtv+a8Vd/wAr&#xA;D8gf9TNpX/Sdbf8ANeKu/wCVh+QP+pm0r/pOtv8AmvFXf8rD8gf9TNpX/Sdbf814q7/lYfkD/qZt&#xA;K/6Trb/mvFXf8rD8gf8AUzaV/wBJ1t/zXirv+Vh+QP8AqZtK/wCk62/5rxV+e3/ILP8Atef9OmKu&#xA;/wCQWf8Aa8/6dMVd/wAgs/7Xn/Tpirv+QWf9rz/p0xV3/ILP+15/06Yq7/kFn/a8/wCnTFXf8gs/&#xA;7Xn/AE6Yq7/kFn/a8/6dMVd/yCz/ALXn/Tpirv8AkFn/AGvP+nTFXf8AILP+15/06Yq7/kFn/a8/&#xA;6dMVd/yCz/tef9OmKu/5BZ/2vP8Ap0xV3/ILP+15/wBOmKu/5BZ/2vP+nTFXf8gs/wC15/06Yq7/&#xA;AJBZ/wBrz/p0xV3/ACCz/tef9OmKu/5BZ/2vP+nTFXf8gs/7Xn/Tpirv+QWf9rz/AKdMVd/yCz/t&#xA;ef8ATpirv+QWf9rz/p0xV3/ILP8Atef9OmKu/wCQWf8Aa8/6dMVd/wAgs/7Xn/Tpirv+QWf9rz/p&#xA;0xV3/ILP+15/06Yq7/kFn/a8/wCnTFXf8gs/7Xn/AE6Yq7/kFn/a8/6dMVf/2Q==</xmpGImg:image>
               </rdf:li>
            </rdf:Alt>
         </xmp:Thumbnails>
         <xmpTPg:MaxPageSize rdf:parseType="Resource">
            <stDim:w>298.033725</stDim:w>
            <stDim:h>99.666774</stDim:h>
            <stDim:unit>Millimeters</stDim:unit>
         </xmpTPg:MaxPageSize>
         <xmpTPg:NPages>1</xmpTPg:NPages>
         <xmpTPg:HasVisibleTransparency>False</xmpTPg:HasVisibleTransparency>
         <xmpTPg:HasVisibleOverprint>False</xmpTPg:HasVisibleOverprint>
         <xmpTPg:PlateNames>
            <rdf:Seq>
               <rdf:li>Cyan</rdf:li>
               <rdf:li>Magenta</rdf:li>
               <rdf:li>Yellow</rdf:li>
               <rdf:li>Black</rdf:li>
            </rdf:Seq>
         </xmpTPg:PlateNames>
         <xmpTPg:SwatchGroups>
            <rdf:Seq>
               <rdf:li rdf:parseType="Resource">
                  <xmpG:groupName>Default Swatch Group</xmpG:groupName>
                  <xmpG:groupType>0</xmpG:groupType>
               </rdf:li>
            </rdf:Seq>
         </xmpTPg:SwatchGroups>
         <dc:format>image/svg+xml</dc:format>
      </rdf:Description>
   </rdf:RDF>
</x:xmpmeta>
                                                                                                    
                                                                                                    
                                                                                                    
                                                                                                    
                                                                                                    
                                                                                                    
                                                                                                    
                                                                                                    
                                                                                                    
                                                                                                    
                                                                                                    
                                                                                                    
                                                                                                    
                                                                                                    
                                                                                                    
                                                                                                    
                                                                                                    
                                                                                                    
                                                                                                    
                                                                                                    
                           
<?xpacket end="w"?>
	</metadata>
<g>
	<path d="M3.2,280.5c0-4.6,0-9.1,0-13.7c280.8,0,561.5,0,842.4,0c0,4.6,0,9.1,0,13.7C564.7,280.5,284,280.5,3.2,280.5z"/>
	<path d="M90.4,137.7c1.4,0,2.5,0,3.5,0c23.7,0,47.4,0,71.2,0c6.2,0,8.5-2.3,8.5-8.5c0-6.3,0-12.7,0-19c0-5-2.5-7.5-7.5-7.5
		c-24,0-47.9,0-71.9,0c-1,0-2.1,0-3.8,0c0.4-3.3,0.4-6.4,1.1-9.3C95.1,78,104.6,66.6,117.5,58c17.6-11.9,37.3-17,58.4-16.6
		c6.7,0.1,13.5,1,20.5,1.6c0,1.5,0,2.5,0,3.5c0,49.1,0,98.2,0.1,147.3c0,2.4-0.5,3.3-3,3.6c-28.1,4.3-54.4,0.1-77.9-16.5
		c-12.7-8.9-21.6-20.7-24.7-36.4C90.5,142.5,90.6,140.3,90.4,137.7z"/>
	<path d="M196.2,213.9c0,6.3,0,12.3,0,18.2c-0.3,0.1-0.4,0.3-0.6,0.3c-30.3,0.6-60.4-0.1-89.9-7.7c-23.2-5.9-45.1-14.8-64.2-29.8
		c-18.9-14.9-32.2-33.6-36.6-57.6c-5.7-30.8,2.3-58,23.6-81C45.9,37.6,67.9,26,91.9,18c18.1-6,36.7-9.9,55.7-11
		c15.5-0.9,31.1-0.8,46.6-1.2c0.6,0,1.2,0.1,1.9,0.2c0,6.1,0,12,0,18.4c-1,0-2,0-3,0c-10.2,0.1-20.3-0.3-30.5,0.2
		c-34.4,1.9-66.5,10.8-94.5,31.8C54.4,66.9,43.3,79.6,37.4,96c-8.7,24.1-4,46.1,11.1,66.3c11.8,15.8,27.6,26.7,45.3,35
		c18.6,8.7,38.3,14,58.8,15.5c13.3,1,26.7,0.8,40.1,1.1C193.7,214,194.8,213.9,196.2,213.9z"/>
	<path d="M487.2,23.7c7.2,0,14.2,0,21.5,0c0,1.3,0,2.4,0,3.6c0,37.4-0.1,74.9,0.1,112.3c0.1,16.5,3.7,32.3,12.4,46.5
		c3.1,5.1,6.9,9.9,11.2,13.9c15.2,14.1,34.5,13.8,49.5-0.4c11.2-10.6,17.4-24,20.3-38.8c1.6-7.9,2.5-16.2,2.5-24.3
		c0.3-36.4,0.1-72.8,0.1-109.2c0-1.1,0-2.2,0-3.5c7.2,0,14.2,0,21.5,0c0,1,0,1.9,0,2.9c0,37.6,0.2,75.2-0.1,112.8
		c-0.2,25.5-7.1,49-23.4,69.1c-9,11.1-20.1,19.2-34.2,22.4c-17.4,3.9-33-0.5-46.8-11.5c-15.4-12.3-24.4-28.8-29.9-47.5
		c-3.2-11-4.7-22.2-4.7-33.6c0-37.1,0-74.2,0-111.3C487.2,26,487.2,25,487.2,23.7z"/>
	<path d="M250.6,232.5c-7,0-13.8,0-20.7,0c0-69.6,0-139.1,0-209.1c5.8,0.2,11.5,0.4,17.1,0.8c14.3,1.1,28.4,3.5,41.7,9.4
		c22.3,9.9,34.4,27,37,51.3c2.5,22.7-6.9,40.2-22.8,55c-13.6,12.6-30,19.8-48,23.4c-0.6,0.1-1.2,0.4-1.8,0.3c-2.2,0-2.6,1.2-2.6,3.1
		c0.1,20.8,0,41.5,0,62.3C250.6,230.1,250.6,231.1,250.6,232.5z M250.7,144.5c0.4,0.1,0.7,0.1,0.9,0.1c0.4,0,0.7,0,1-0.1
		c14-3.1,26.6-8.9,37-19c16.9-16.3,18.9-39,5.1-57.1c-9.4-12.3-22.3-19.2-36.9-23.5c-2.3-0.7-4.6-1.1-7.1-1.7
		C250.7,77.2,250.7,110.9,250.7,144.5z"/>
	<path d="M773.5,209.4c19.9,0,39.7,0,59.8,0c0.4,8.3,0.8,16.2,1.2,24.5c-27.6-1.6-54.9-3.1-82.5-4.7c0-67.1,0-134.1,0-201.3
		c25.7-1.6,51.3-3.1,77.2-4.7c0.4,8,0.8,15.7,1.2,23.7c-19,0-37.9,0-56.9,0c0,22.8,0,45.2,0,68c16.8-0.4,33.4-0.8,50.3-1.1
		c0,7.6,0,15,0,22.9c-16.7-0.4-33.4-0.8-50.3-1.1C773.5,160.1,773.5,184.5,773.5,209.4z"/>
	<path d="M713.9,23.6c2.7,6.9,5.2,13.6,7.8,20.1c-6.1,2.9-12.2,5.6-18,8.6c-10.2,5.3-19.8,11.5-27.6,20.2c-9.9,11.1-9.8,21,0.1,32.1
		c5.7,6.4,12.8,11.1,19.7,16.2c6.6,4.9,13.5,9.6,19.5,15.2c8.5,8.1,13.9,18.2,14.5,30.3c0.4,8.9-2.3,16.9-7,24.4
		c-7.1,11.1-17,19.1-27.9,26.2c-10.3,6.8-21.3,12.2-32.8,16.8c-0.5,0.2-1.1,0.4-2,0.6c-2.6-6.7-5.2-13.3-7.9-20.1
		c1.1-0.5,2.1-0.9,3.1-1.3c13.4-5.7,26.2-12.4,37.5-21.7c4.7-3.9,8.9-8.3,11.9-13.7c3.6-6.5,3.6-12.9-0.1-19.3
		c-2.6-4.5-6-8.2-10.2-11.3c-8.5-6.2-17.2-12.1-25.3-18.8c-5-4.1-9.6-8.9-13.5-14c-12.5-16.4-12.3-34.7-0.1-51.3
		c4.6-6.3,10.2-11.6,16.4-16.3C684.6,36.8,698.8,29.6,713.9,23.6z"/>
	<path d="M379,232.4c-7.1,0-14.1,0-21.2,0c0-69.6,0-139,0-208.7c7,0,14,0,21.2,0C379,93.2,379,162.8,379,232.4z"/>
	<path d="M419,119c0-8.6,6.8-15.2,15.5-15.1c8.4,0,15.1,6.8,15.1,15.2c0,8.4-6.8,15.2-15.2,15.2C425.8,134.4,419,127.6,419,119z"/>
</g>
</svg>
