<?xml version="1.0" encoding="utf-8"?>
<!-- Generator: Adobe Illustrator 23.0.0, SVG Export Plug-In . SVG Version: 6.00 Build 0)  -->
<svg version="1.0" id="Layer_1" xmlns="http://www.w3.org/2000/svg" xmlns:xlink="http://www.w3.org/1999/xlink" x="0px" y="0px"
	 viewBox="0 0 595.28 739.33" style="enable-background:new 0 0 595.28 739.33; fill:white;" xml:space="preserve">
<g>
	<path d="M19.7,278.06c-1.55,21.06-5.51,41.34-16.7,59.63c-0.33,0.56-0.84,1.01-1.76,2.11c-0.09-1.67-0.17-2.61-0.17-3.55
		c0-52.25-0.35-104.51,0.12-156.76c0.28-31.52,10.35-60.21,28.98-85.64c21.97-29.99,51.12-49.68,87.26-58.49
		c32.4-7.88,63.97-4.7,95.04,7.45c28.84,11.28,58.23,13.4,87.73,1.85c0.5-0.21,0.99-0.45,1.51-0.63c5.67-1.93,9.43-5.43,12.3-11.05
		c7.5-14.62,18.94-25.13,35.12-29.83c2.33-0.7,4.16-0.45,6.26,0.99c27.13,18.57,54.32,37.06,81.54,55.47
		c1.57,1.06,3.58,1.62,5.48,2.04c18.59,4.21,34.02,13.75,46.65,27.88c14.89,16.62,23.01,36.52,27.48,58.1
		c4.83,23.38,5.3,47.01,3.01,70.69c-1.16,12.11-3.11,24.16-4.89,36.2c-0.37,2.52,0.02,4.49,1.6,6.51
		c9.39,12.05,21.85,19.81,35.71,25.59c12.66,5.26,25.9,8.39,39.53,9.82c0.54,0.05,1.08,0.16,1.6,0.26c0.33,0.09,0.66,0.23,0.97,0.57
		c-27.76,6.41-55.35,5.55-83.05-2.45c-0.31,3.67-0.64,7.15-0.89,10.64c-1.32,18.75-2.61,37.49-3.91,56.24
		c-1.18,16.95-2.26,33.91-3.6,50.83c-0.56,7.05-2.21,13.91-5.43,20.3c-5.81,11.54-15.46,16.99-28.11,17.58
		c-2.16,0.1-4.35,0.1-6.49-0.14c-0.68-0.09-1.76-1.08-1.77-1.69c-0.14-4.94-0.09-9.9-0.09-14.92c2.23-0.33,4.31-0.4,6.24-0.97
		c5.72-1.74,8.89-6.02,10.45-11.52c2.38-8.37,1.77-16.87,0.24-25.26c-3.58-19.69-9.57-38.73-15.71-57.72
		c-3.71-11.42-7.83-22.72-11.38-34.19c-1.11-3.6-1.1-7.59-1.32-11.42c-0.05-1.01,0.7-2.7,1.46-2.98c2.76-1.03,2.04-2.85,1.69-4.82
		c-1.76-9.7-4.47-18.99-10.97-26.75c-4.24-5.08-9.55-8.82-15.44-11.68c-2.54-1.24-3.57-3.03-3.08-5.62c0.5-2.65,1.18-5.29,2.12-7.82
		c0.4-1.01,1.55-2.09,2.59-2.45c3.43-1.2,4.78-3.76,3.79-7.35c-0.61-2.14-1.1-4.33-1.27-6.54c-0.78-10.13-8.07-18.09-17.39-18.8
		c-10.04-0.77-19.32,8.01-19.79,18.54c-0.11,2.19-0.59,4.44-1.22,6.54c-1.1,3.71,0.17,6.47,3.74,7.57c0.49,0.14,1.01,0.38,1.41,0.73
		c2.1,1.79,4.24,10.44,2.87,12.74c-0.71,1.18-2.17,2.12-3.5,2.7c-7.03,3.01-13.6,6.63-19.11,12.08
		c-5.95,5.87-9.74,12.97-12.35,20.77c-1.77,5.31-3.31,10.69-4.75,16.08c-0.26,0.97,0.17,2.49,0.83,3.29
		c2.99,3.6,4.77,7.66,6.24,12.13c2.16,6.56,5.3,12.81,8.19,19.13c1.1,2.37,2.44,4.66,3.98,6.77c7.25,9.85,8.16,20.89,6.42,32.53
		c-3.37,22.82-3.91,45.74-1.1,68.63c1.34,10.91,3.88,21.67,5.86,32.48c0.07,0.44,0.09,0.89,0.16,1.55h-69.35
		c25.06-12.31,31.33-33,28.58-57.88c-0.33-0.19-0.66-0.4-1.01-0.59c-2.82,3.1-5.65,6.21-8.45,9.33c-3.08,3.43-6.12,6.89-9.24,10.29
		c-0.9,0.97-1.93,1.91-3.06,2.65c-2.4,1.58-4.9,1.43-6.75-0.26c-1.88-1.71-2.3-4.04-0.96-6.67c2.33-4.61,3.67-9.4,3.13-14.62
		c-0.37-3.41-1.64-6.42-4.04-9.38c-1.9,2.04-3.71,3.97-5.79,6.21v-33.28c1.27-0.12,3.13-0.19,4.96-0.47
		c5.55-0.8,9.39-3.95,11.83-8.88c3.08-6.21,3.24-12.9,2.9-19.62c-0.09-1.79-0.33-3.57-0.5-5.34c-0.23-0.16-0.47-0.31-0.7-0.47
		c-1.01,1.18-2,2.38-3.04,3.55c-3.91,4.37-7.77,8.79-11.79,13.09c-4.66,4.98-6.99,4.53-9.13-1.88
		c-4.05-12.1-11.65-21.98-19.71-31.51c-11.01-13.04-24.14-23.5-39.1-31.8c-5.08-2.8-9.98-3.64-15.72-2.82
		c-15.55,2.21-31.15,3.97-46.75,5.8c-1.53,0.17-3.24-0.21-4.71-0.75c-14.26-5.15-28.87-7.36-43.92-4.86
		c-18.42,3.06-32.35,13.16-42.82,28.34c-8.92,12.95-13.46,27.33-13.45,43.03c0,13.86,3.01,27.15,9.08,39.55
		c3.03,6.2,5.03,12.43,5.76,19.25c1.5,13.72,2.23,27.38-0.85,40.99c-2.09,9.21-2.1,9.21-11.34,9.21c-26.74,0-53.48-0.03-80.22,0.07
		c-2.73,0-3.34-0.71-3.53-3.46c-1.03-15.23,2.59-29.26,9.41-42.82c8.75-17.41,12.82-36.21,14.92-55.46
		c3.3-30.27,0.59-60.24-4.92-90.06C20.22,279.68,19.93,278.88,19.7,278.06"/>
	<path d="M212.68,554.76v73.44c0.5,0.07,0.78,0.14,1.04,0.14c19.24,0.02,38.47,0.12,57.69-0.03c10.14-0.07,18.99-3.57,25.51-11.61
		c8.02-9.87,10.49-21.25,7.98-33.63c-3.53-17.44-16.96-28.3-34.66-28.3c-18.05,0-36.11,0-54.18,0H212.68z M281.46,661.48
		c3.29,2.3,5.98,4.21,8.7,6.09c17.72,12.17,35.43,24.35,53.19,36.45c1.86,1.27,2.35,2.14,0.87,4.2
		c-6.45,9.05-12.72,18.22-19.06,27.36c-0.56,0.8-1.17,1.58-1.98,2.68c-36.75-25.52-73.43-50.97-110.72-76.87v3.71
		c0,18.35-0.05,36.69,0.05,55.04c0.02,2.66-0.78,3.34-3.36,3.31c-10.66-0.14-21.32-0.05-31.99-0.05c-3.55,0-3.55,0-3.55-3.53
		c0-41.11,0-82.24,0-123.38c0-24.77,0-49.54,0-74.31c0-1.24,0.1-2.49,0.17-3.99c1.32,0,2.38,0,3.46,0
		c21.39,0.05,42.8,0.05,64.22,0.16c11.64,0.05,23.31-0.1,34.93,0.44c36.7,1.65,64.32,26.11,68.02,62.59
		c1.62,15.79-0.68,31.23-7.34,45.78c-8.87,19.34-24.32,29.92-45.05,33.19c-1.7,0.26-3.41,0.42-5.11,0.59
		C285.33,661.11,283.75,661.25,281.46,661.48"/>
	<path d="M150.51,639.25H39.87v45.95h3.44c35.87,0,71.73,0,107.59,0c3.58,0,3.58,0,3.58,3.46c0.02,10.58-0.05,21.17,0.07,31.73
		c0.02,2.42-0.73,3.05-3.1,3.05c-49.14-0.07-98.27-0.07-147.41,0c-2.43,0-3.03-0.73-3.03-3.08c0.05-66.27,0.05-132.53,0-198.78
		c0-2.37,0.63-3.06,3.03-3.06c49.14,0.07,98.27,0.07,147.41,0c2.35,0,3.11,0.59,3.1,3.01c-0.14,10.58-0.14,21.17,0,31.73
		c0.03,2.65-0.94,3.13-3.31,3.13c-35.95-0.05-71.9-0.03-107.85-0.03c-3.76,0-3.76,0-3.76,3.83c0,13.19,0.07,26.39-0.07,39.58
		c-0.02,2.68,0.8,3.31,3.36,3.31c34.6-0.09,69.19-0.05,103.79-0.05c3.79,0,3.79,0,3.79,3.86c0,9.68,0,19.34,0,29.02V639.25z"/>
	<path d="M401.68,555.58v4.06c0,53.33,0,106.67,0,160.02c0,3.73,0,3.73-3.62,3.73c-10.56,0.02-21.13,0.02-31.71,0.02h-3.18V518.73
		c0.75-0.05,1.44-0.16,2.14-0.16c32.14-0.14,64.3-0.57,96.46-0.28c23.58,0.23,43.81,8.56,58.42,27.9
		c10.04,13.3,14.52,28.53,14.37,45.13c-0.21,19.43-6.45,36.54-20.04,50.62c-10.92,11.35-24.51,17.67-39.93,20.09
		c-14.28,2.23-28.66,0.84-43.02,1.22c-1.46,0.03-1.84-0.64-1.84-1.97c0.03-10.5,0.05-20.97-0.02-31.47
		c-0.02-1.91,0.89-2.19,2.49-2.18c8.23,0.05,16.46,0.16,24.66-0.05c4.31-0.1,8.73-0.31,12.87-1.38c15.12-3.88,23.5-14.06,26-29.24
		c2.5-15.35-5.22-30.95-18.47-37.6c-5.1-2.56-10.54-3.93-16.18-3.97c-19.06-0.1-38.13-0.03-57.19-0.03
		C403.3,555.37,402.69,555.48,401.68,555.58"/>
	<path d="M272.79,472.24h-18c-6.49,0-12.99,0.1-19.48-0.09c-1.31-0.03-2.99-0.78-3.83-1.78c-6.28-7.38-7.93-16.24-7.51-25.57
		c0.17-3.59,0.85-7.17,1.53-10.7c0.16-0.84,1.1-1.98,1.86-2.18c6.64-1.69,13.32-3.15,19.98-4.73c1.37-0.31,2.35-0.23,3.1,1.24
		c7.17,13.96,14.4,27.9,21.6,41.84C272.28,470.73,272.42,471.25,272.79,472.24"/>
	<path d="M125.7,403.37c5.91,4.11,11.46,7.94,16.94,11.87c0.58,0.42,0.87,1.55,0.87,2.35c0.05,17.42,0.03,34.85,0.03,52.27
		c0,1.2,0.07,2.4-1.72,2.38c-6.58-0.03-13.15-0.02-19.55-0.02c-0.26-0.37-0.47-0.52-0.45-0.64c0.64-7.71-2.1-14.93-3.11-22.38
		c-1.95-14.57,0.56-28.58,5.62-42.23C124.76,405.8,125.21,404.66,125.7,403.37"/>
	<path d="M558.98,525.41v12.2c-3.95,0.7-4.05,0.63-4.05-2.85c0-4.51-0.07-9.02,0.05-13.54c0.02-0.99,0.71-2.84,1.01-2.82
		c1.48,0.07,3.37,0.21,4.31,1.15c1.9,1.85,3.27,4.25,5.13,6.81c1.55-2.09,3.03-3.76,4.12-5.66c1.41-2.49,3.36-2.96,6.04-2.21v19.3
		h-3.64v-12.24c-0.23-0.12-0.47-0.23-0.7-0.35c-1.2,1.57-2.4,3.13-3.57,4.72c-2.28,3.05-2.3,3.05-4.49,0.1
		c-1.2-1.62-2.43-3.22-3.65-4.82C559.37,525.27,559.17,525.34,558.98,525.41"/>
	<path d="M547.02,537.63c-3.98,0.64-4.05,0.57-4.07-2.77c0-4.23,0-8.44,0-12.85c-2.14-0.1-3.91-0.21-5.63-0.3
		c-0.97-3.1-0.73-3.52,2.16-3.52c4.4-0.02,8.8-0.02,13.36-0.02v3.5c-1.84,0.1-3.69,0.21-5.81,0.33V537.63z"/>
</g>
</svg>
