<svg id="Layer_1" data-name="Layer 1" xmlns="http://www.w3.org/2000/svg" xmlns:xlink="http://www.w3.org/1999/xlink" viewBox="0 0 1920 200"><defs><style>.cls-1,.cls-3{fill:none;}.cls-2{fill:#162834;}.cls-3{stroke:#8ecfd3;stroke-miterlimit:10;stroke-width:2.8px;}.cls-4{clip-path:url(#clip-path);}.cls-5{fill:#fff;}</style><clipPath id="clip-path" transform="translate(-1.31 -1.19)"><rect class="cls-1" x="1.31" y="1.19" width="1920" height="200"/></clipPath></defs><title>footer</title><rect class="cls-2" width="1920" height="200"/><path class="cls-3" d="M1667.11,101.19H1360.36m-798.09,0H255.51" transform="translate(-1.31 -1.19)"/><g class="cls-4"><path class="cls-5" d="M928.47,94.74a15.41,15.41,0,0,1-2,7.05l-.21.25c0-.2,0-.31,0-.42,0-6.18,0-12.36,0-18.54a17.07,17.07,0,0,1,3.43-10.14A17.67,17.67,0,0,1,940,66a18.36,18.36,0,0,1,11.24.88,13.76,13.76,0,0,0,10.38.22l.18-.07a2.44,2.44,0,0,0,1.46-1.31,6.64,6.64,0,0,1,4.15-3.53.79.79,0,0,1,.74.12q4.82,3.3,9.65,6.56a1.75,1.75,0,0,0,.65.24,10.37,10.37,0,0,1,5.52,3.3,14.4,14.4,0,0,1,3.25,6.88,27.59,27.59,0,0,1,.35,8.36c-.13,1.43-.36,2.86-.57,4.28a.92.92,0,0,0,.18.77,10.06,10.06,0,0,0,4.23,3,16.73,16.73,0,0,0,4.68,1.16l.19,0,.11.07a19.14,19.14,0,0,1-9.82-.29c0,.44-.08.85-.11,1.26-.16,2.22-.31,4.43-.46,6.65-.14,2-.27,4-.43,6a6.35,6.35,0,0,1-.64,2.41,3.66,3.66,0,0,1-3.33,2.08,4.83,4.83,0,0,1-.76,0l-.21-.2c0-.59,0-1.17,0-1.77a4.25,4.25,0,0,0,.74-.11,1.83,1.83,0,0,0,1.23-1.36,6.57,6.57,0,0,0,0-3,52.24,52.24,0,0,0-1.86-6.83c-.44-1.35-.92-2.69-1.34-4a5.54,5.54,0,0,1-.16-1.35l.17-.36c.33-.12.24-.33.2-.57a6.5,6.5,0,0,0-1.3-3.16A5.36,5.36,0,0,0,976.54,91a.55.55,0,0,1-.37-.66,5.67,5.67,0,0,1,.25-.92l.31-.29a.65.65,0,0,0,.45-.87,4.29,4.29,0,0,1-.15-.78A2.32,2.32,0,0,0,975,85.24a2.28,2.28,0,0,0-2.34,2.19,3.27,3.27,0,0,1-.14.77.65.65,0,0,0,.44.9l.16.09a1.94,1.94,0,0,1,.34,1.5L973,91a7.23,7.23,0,0,0-2.26,1.43,6.06,6.06,0,0,0-1.46,2.46c-.21.63-.39,1.26-.56,1.9l.1.39a4.26,4.26,0,0,1,.73,1.44c.26.77.63,1.51,1,2.26a4.93,4.93,0,0,0,.47.8,4.91,4.91,0,0,1,.76,3.85,30.25,30.25,0,0,0-.13,8.12c.16,1.29.46,2.56.7,3.84l0,.19h-8.21c3-1.46,3.71-3.91,3.38-6.85l-.12-.07-1,1.1c-.36.41-.72.82-1.09,1.22l-.36.31a.62.62,0,0,1-.91-.82,3.14,3.14,0,0,0,.37-1.73,2.15,2.15,0,0,0-.48-1.11l-.69.74v-3.94c.15,0,.37,0,.59-.05a1.79,1.79,0,0,0,1.4-1.06,4.59,4.59,0,0,0,.34-2.32c0-.21,0-.42-.06-.63l-.08,0-.36.42c-.46.51-.92,1-1.39,1.54s-.83.54-1.08-.22a11.37,11.37,0,0,0-2.34-3.72,16.18,16.18,0,0,0-4.62-3.77,2.8,2.8,0,0,0-1.86-.33c-1.84.26-3.69.47-5.53.68L947.7,97a10.26,10.26,0,0,0-5.2-.58,7.49,7.49,0,0,0-5.06,3.35,8.73,8.73,0,0,0-1.59,5.1,10.45,10.45,0,0,0,1.07,4.67,6.6,6.6,0,0,1,.68,2.28,14.36,14.36,0,0,1-.1,4.85c-.25,1.09-.25,1.09-1.34,1.09h-9.49c-.32,0-.4-.09-.42-.41a9.73,9.73,0,0,1,1.11-5.07,18.92,18.92,0,0,0,1.77-6.56A36.6,36.6,0,0,0,928.55,95Z" transform="translate(-1.31 -1.19)"/><path class="cls-5" d="M959.44,140.1l1,.72,6.3,4.31c.22.15.28.25.1.5-.76,1.07-1.5,2.15-2.26,3.23l-.23.32-13.1-9.09v.44c0,2.17,0,4.34,0,6.51,0,.31-.1.39-.4.39-1.26,0-2.52,0-3.78,0-.42,0-.42,0-.42-.41V123.62l0-.47h8c1.38,0,2.76,0,4.13.06a8.08,8.08,0,0,1,8,7.4A10.32,10.32,0,0,1,966,136a6.61,6.61,0,0,1-5.33,3.92c-.2,0-.4,0-.6.07l-.64.07m-8.14-12.63v8.69l.12,0c2.28,0,4.55,0,6.83,0a3.74,3.74,0,0,0,3-1.37,4.58,4.58,0,0,0,.94-4,4,4,0,0,0-4.1-3.35H951.3Z" transform="translate(-1.31 -1.19)"/><path class="cls-5" d="M943.94,137.47H930.85v5.43H944c.42,0,.42,0,.42.41,0,1.26,0,2.51,0,3.76,0,.29-.08.36-.36.36q-8.73,0-17.44,0c-.29,0-.36-.09-.36-.36q0-11.77,0-23.52c0-.28.07-.37.36-.37h17.44c.27,0,.36.07.36.36,0,1.25,0,2.51,0,3.75,0,.32-.11.38-.39.38H931.27c-.44,0-.44,0-.44.45,0,1.57,0,3.13,0,4.69,0,.31.09.39.4.39H943.5c.44,0,.44,0,.44.46v3.83Z" transform="translate(-1.31 -1.19)"/><path class="cls-5" d="M973.66,127.57V147c0,.44,0,.44-.43.44H969.1V123.21l.26,0c3.8,0,7.6-.06,11.41,0a8.3,8.3,0,0,1,6.91,3.3,9,9,0,0,1-.67,11.33,8.14,8.14,0,0,1-4.72,2.38,41.21,41.21,0,0,1-5.09.14l-.22-.23v-3.73c0-.22.1-.26.29-.25,1,0,2,0,2.92,0a7,7,0,0,0,1.52-.16,4,4,0,0,0,3.08-3.46,4.18,4.18,0,0,0-4.1-4.92h-6.77Z" transform="translate(-1.31 -1.19)"/><path class="cls-5" d="M958.41,117.71h-2.13c-.77,0-1.54,0-2.3,0l-.46-.21a4.18,4.18,0,0,1-.89-3,9.1,9.1,0,0,1,.18-1.26l.23-.26c.78-.2,1.57-.37,2.36-.56l.37.15c.84,1.65,1.7,3.3,2.55,5Z" transform="translate(-1.31 -1.19)"/><path class="cls-5" d="M941,109.56c.7.49,1.35.94,2,1.41l.11.28v6.18c0,.14,0,.28-.2.28H940.6l-.05-.08a12.35,12.35,0,0,0-.37-2.64,10.27,10.27,0,0,1,.67-5Z" transform="translate(-1.31 -1.19)"/><path class="cls-5" d="M992.27,124v1.44c-.47.09-.48.08-.48-.33s0-1.07,0-1.6l.12-.34.51.14a6.94,6.94,0,0,1,.6.8,5.4,5.4,0,0,0,.49-.67.55.55,0,0,1,.71-.26v2.28h-.43V124l-.08,0-.42.55c-.27.36-.27.36-.53,0s-.29-.38-.43-.57Z" transform="translate(-1.31 -1.19)"/><path class="cls-5" d="M990.85,125.45c-.47.07-.48.06-.48-.33V123.6l-.66,0c-.12-.36-.09-.41.25-.41h1.58v.42l-.69,0Z" transform="translate(-1.31 -1.19)"/></g><rect class="cls-5" x="714.21" y="132.37" width="160.31" height="2.61"/><g class="cls-4"><path class="cls-5" d="M732.12,109h14.2c1.18,0,1.61-.44,1.61-1.62s0-2.41,0-3.62a1.26,1.26,0,0,0-1.43-1.42H732.09a15.8,15.8,0,0,1,.21-1.78,11.23,11.23,0,0,1,5-6.74,18.65,18.65,0,0,1,11.11-3.15c1.28,0,2.56.19,3.9.3v.68q0,14,0,28c0,.45-.1.62-.57.69-5.33.82-10.34,0-14.82-3.13a10.85,10.85,0,0,1-4.69-6.92,10.11,10.11,0,0,1-.09-1.31" transform="translate(-1.31 -1.19)"/><path class="cls-5" d="M752.24,123.52V127l-.1.06c-5.76.11-11.5,0-17.12-1.47a32.25,32.25,0,0,1-12.22-5.67,17.9,17.9,0,0,1-7-11,17,17,0,0,1,4.49-15.41,28.07,28.07,0,0,1,12.08-7.31A40.83,40.83,0,0,1,743,84.14c3-.17,5.91-.16,8.87-.23a2.63,2.63,0,0,1,.36,0v3.5h-.57c-1.94,0-3.87-.06-5.8,0-6.55.35-12.66,2-18,6a16.52,16.52,0,0,0-5.86,7.52c-1.66,4.58-.75,8.78,2.11,12.61a22,22,0,0,0,8.62,6.66,31.74,31.74,0,0,0,11.18,3c2.53.19,5.08.15,7.62.22h.69" transform="translate(-1.31 -1.19)"/><path class="cls-5" d="M807.63,87.31h4.09V88c0,7.13,0,14.25,0,21.38a16.77,16.77,0,0,0,2.35,8.84,12.65,12.65,0,0,0,2.13,2.64,6.52,6.52,0,0,0,9.43-.08,13.48,13.48,0,0,0,3.88-7.38,24.81,24.81,0,0,0,.48-4.62c0-6.93,0-13.85,0-20.78v-.67h4.08v.54c0,7.16,0,14.32,0,21.48a20.46,20.46,0,0,1-4.46,13.15,11.63,11.63,0,0,1-6.51,4.26,10.16,10.16,0,0,1-8.92-2.18,17.39,17.39,0,0,1-5.68-9,22.75,22.75,0,0,1-.9-6.4V87.31Z" transform="translate(-1.31 -1.19)"/><path class="cls-5" d="M762.63,110.3l.17,0a1.2,1.2,0,0,0,.2,0,14.29,14.29,0,0,0,7-3.61,7.87,7.87,0,0,0,1-10.87,13,13,0,0,0-7-4.47c-.44-.12-.89-.21-1.36-.33Zm0,16.74h-4V87.26c1.1,0,2.19.06,3.27.14a23.76,23.76,0,0,1,7.93,1.79,11.29,11.29,0,0,1,7,9.76c.46,4.31-1.31,7.64-4.34,10.46a18.45,18.45,0,0,1-9.14,4.46,2.05,2.05,0,0,1-.34.07c-.42,0-.49.22-.49.6q0,5.92,0,11.85Z" transform="translate(-1.31 -1.19)"/><path class="cls-5" d="M862.11,122.66h11.38c.08,1.58.15,3.09.23,4.67l-15.7-.89V88.13l14.7-.89c.08,1.52.15,3,.22,4.51H862.11v12.94l9.57-.22v4.37l-9.57-.22Z" transform="translate(-1.31 -1.19)"/><path class="cls-5" d="M850.78,87.29l1.47,3.82c-1.17.56-2.31,1.06-3.42,1.64a17.94,17.94,0,0,0-5.25,3.85c-1.88,2.11-1.86,4,0,6.11a22.53,22.53,0,0,0,3.74,3.08,38.73,38.73,0,0,1,3.7,2.9,8.34,8.34,0,0,1,2.76,5.76,7.72,7.72,0,0,1-1.34,4.63,17.07,17.07,0,0,1-5.3,5,35.41,35.41,0,0,1-6.25,3.2l-.37.12-1.5-3.83.59-.25a28.08,28.08,0,0,0,7.13-4.14,9.28,9.28,0,0,0,2.27-2.6,3.47,3.47,0,0,0,0-3.67,6.77,6.77,0,0,0-1.94-2.15c-1.62-1.18-3.27-2.31-4.82-3.57a16.16,16.16,0,0,1-2.57-2.66,7.66,7.66,0,0,1,0-9.76,15.53,15.53,0,0,1,3.12-3.1,33.12,33.12,0,0,1,8-4.37" transform="translate(-1.31 -1.19)"/></g><rect class="cls-5" x="781.71" y="86.13" width="4.03" height="39.71"/><g class="cls-4"><path class="cls-5" d="M794.64,105.46a2.91,2.91,0,1,1,2.93,2.92,2.91,2.91,0,0,1-2.93-2.92" transform="translate(-1.31 -1.19)"/><path class="cls-5" d="M1201.84,78.77a11.44,11.44,0,0,1-9.2,3,11.59,11.59,0,0,1-8-4.26,2,2,0,0,0-.29-.29c0-.07,0-.2-.12-.15s0,.15,0,.21a7.92,7.92,0,0,0,1.31,2.36c.28.38.2.51-.2.68a11.57,11.57,0,0,1-4.74,1c-.71,0-.85.21-.81.85.06.81,0,1.63,0,2.54l-2.46-1c-2.45-1.05-4.89-2.12-7.36-3.13a.85.85,0,0,1-.62-1.1,12.68,12.68,0,0,1,4.91-8.14l.43-.34.18-.16c-.11-.1-.19,0-.27,0a10.05,10.05,0,0,0-3.94,3,12.27,12.27,0,0,0-2.93,6.73c0,.49.12.59.49.7,2.71.8,5.42,1.64,8.14,2.41.71.2,1,.48.95,1.26a12.73,12.73,0,0,1-.35,2.55,2.94,2.94,0,0,0,0,1.81c1.59,4.94,3.14,9.9,4.74,14.84a15.34,15.34,0,0,1,.3,4.21c0,.31-.22.4-.45.44a12.21,12.21,0,0,1-4.22,0c-.36-.06-.46-.27-.44-.65.06-1,.06-2,.09-2.93a1.77,1.77,0,0,0-.11-.68,31.6,31.6,0,0,0-5.45-8.86c-.07-.08-.17-.15-.3-.27l-2.78,7.17c-.06.16-.1.31-.17.46a6.58,6.58,0,0,0-.61,4.57c.25,1.08.15,1.16-.93,1.28a14.09,14.09,0,0,1-3.89-.07c-.52-.08-.62-.27-.43-.78a32.27,32.27,0,0,0,2.35-12.43,18.91,18.91,0,0,0-.38-3.18c-.08-.41-.22-.42-.55-.27a22.71,22.71,0,0,1-7.6,1.85c-.33,0-.43.18-.51.45a90.36,90.36,0,0,0-2.6,10.59,9.24,9.24,0,0,0,.27,2.89c.1.6-.12.8-.66.88a10.34,10.34,0,0,1-3.19,0c-.49-.07-.68-.2-.58-.8a37.85,37.85,0,0,0,.16-8.9,1,1,0,0,1,.61-1.07,11.78,11.78,0,0,0,4-3.44l.15-.26c.07,0,.11-.08,0-.15l-.09.09-.22.19a13.32,13.32,0,0,1-4.65,2.3c-.27.06-.35.28-.46.48-1.36,2.48-2.61,5-3.83,7.58a1.88,1.88,0,0,0-.19.8c0,.86-.1,1.72-.11,2.58a.5.5,0,0,1-.46.57,15.24,15.24,0,0,1-4.86,0c-.51-.08-.37-.37-.23-.7a61.87,61.87,0,0,0,3.36-9.43,21.89,21.89,0,0,0,.92-5.33,5.75,5.75,0,0,0-.56-2.7c-.23-.46-.35-1-.61-1.48-.92,2.32-.92,4.79-1.3,7.23-.08-.48-.15-1-.22-1.43s-.16-1-.21-1.51a23.92,23.92,0,0,1,1-10.33,12.82,12.82,0,0,1,5.21-7,9.74,9.74,0,0,1,6.55-1.25c7.11.92,13.74-.24,19.59-4.65a12.27,12.27,0,0,0,2-1.77,1,1,0,0,1,1.19-.33q5.94,1.65,11.88,3.23a6.58,6.58,0,0,0,1.09.22,2.62,2.62,0,0,0,3.12-2.42,2.72,2.72,0,0,0-2.69-2.72,5.32,5.32,0,0,0-2.57.49,3.33,3.33,0,0,1-2.36.37.89.89,0,0,1-.7-.68.66.66,0,0,1,.32-.72.77.77,0,0,1,1,.11c.46.37.87.15,1.26-.13a11.25,11.25,0,0,1,2.2-1.34,5.32,5.32,0,0,1,7.47,5.07,8.47,8.47,0,0,1-1.5,5.1,6.51,6.51,0,0,1-4.25,2.79,6.17,6.17,0,0,0-.61.17,10.23,10.23,0,0,0,4.78,2.42,9.9,9.9,0,0,0,6.81-1c.27-.15.54-.27.81-.41l.11.12" transform="translate(-1.31 -1.19)"/><path class="cls-5" d="M1118.72,105.05a6.36,6.36,0,0,0,1-1.28c.48-.6.46-.71-.13-1.33a17.22,17.22,0,0,0-.89,2.62c-.09,0-.12,0-.11.1a.09.09,0,0,0,0,0,1.11,1.11,0,0,1,.07-.16m-12.43-5.72c-.23-.08-.33.12-.47.22a8.46,8.46,0,0,1-3,1.53.87.87,0,0,0-.67.62c-.45,1.26-.94,2.52-1.4,3.78a11,11,0,0,0-.25,2.63c0,.46-.21.66-.64.71a15,15,0,0,1-3.54,0c-.43,0-.62-.18-.41-.71a24.58,24.58,0,0,0,1.33-6.73,18.8,18.8,0,0,0-.28-6.17,19.65,19.65,0,0,0-.89-2.37,4.11,4.11,0,0,0-1.06,1.62,10.78,10.78,0,0,1-1.58,3,3.07,3.07,0,0,1-2.12,1.08c2.64-2,2.81-5,3.25-7.86a13.41,13.41,0,0,1,3.27-7.39,7.52,7.52,0,0,1,7.36-2.29c4.58.91,9,.46,13-2.16a3.77,3.77,0,0,0,.84-.63,1.61,1.61,0,0,1,2.11-.4c2.46,1,5,1.81,7.46,2.69a3.1,3.1,0,0,1,1.51,1.18,17.57,17.57,0,0,1,2.62,6.91,16,16,0,0,1,.24,5.12.92.92,0,0,0,.32.8,8.4,8.4,0,0,0,4.82,2.42,8.6,8.6,0,0,1-5.33-1.5,9.56,9.56,0,0,0,1,6.59,2.07,2.07,0,0,1-.12,2.53,2.32,2.32,0,0,1-2.52.74,2.16,2.16,0,0,1-1.66-1.86,1.56,1.56,0,0,1,.39-1.35.38.38,0,0,1,.56-.08c.18.16.11.33,0,.49-.35.4-.14.74.18,1a1.1,1.1,0,0,0,1.46,0,.75.75,0,0,0,.1-1.12,10.84,10.84,0,0,1-1.9-6.78,1,1,0,0,1,0-.34c.78-1.64-.35-2.79-1-4.06a3.57,3.57,0,0,0-1.8-.52c-.21.08-.16.26-.16.41s0,.61,0,.91v.93l-2.88-1.23c-1.85-.79-3.7-1.61-5.57-2.37a1.33,1.33,0,0,1-.84-.92,10.07,10.07,0,0,1,.3-7.53c.09-.18.25-.34.2-.61-.19,0-.25.16-.33.28a10.27,10.27,0,0,0-1,9.08.81.81,0,0,0,.65.53c1.91.57,3.81,1.17,5.73,1.72.45.13.55.34.45.73a8.85,8.85,0,0,1-1.29,3.29,1.06,1.06,0,0,0-.14,1c.6,1.83,1.15,3.67,1.73,5.5a1,1,0,0,1-.06.92c-.82,1.43-1.61,2.87-2.39,4.33a.73.73,0,0,1-.81.46,8,8,0,0,1-1.77-.34c-.39-.12-.62-.14-.47.36s-.07.6-.46.66a10.78,10.78,0,0,1-3.54,0c-.42-.07-.53-.22-.35-.65a20.51,20.51,0,0,0,1.61-9.38c0-.6.08-1.42-.26-1.73s-1,.28-1.52.48a19.06,19.06,0,0,1-6,1.35c-.54,0-.47.22-.35.58.67,2.1,1.33,4.2,2,6.3a10.52,10.52,0,0,1,.23,2.62c0,.27-.17.37-.38.42a7.48,7.48,0,0,1-3,0c-.25,0-.41-.16-.41-.46a17.65,17.65,0,0,0-1.62-6.58.58.58,0,0,1,.18-.77,5.55,5.55,0,0,0,1.44-1.68,1.71,1.71,0,0,0,.11-.14l-.09,0,0,.17" transform="translate(-1.31 -1.19)"/><path class="cls-5" d="M1067.91,103.05l1.21,3.51a4.56,4.56,0,0,1,.18.52c.14.57.34,1.28,0,1.67s-1.18.21-1.8.17a.35.35,0,0,1-.36-.41,8.19,8.19,0,0,0-.89-3.47c-.22-.51-.3-.89.21-1.24a.78.78,0,0,0,.37-.62c-.8.6-1.75.79-2.3,1.65a18.74,18.74,0,0,1-1.48,1.85,3.7,3.7,0,0,0-1,1.8c-.08.52-.36.58-.78.35-.12-.07-.27-.1-.38-.17-.44-.3-1.09-.52-1.26-.93-.24-.56.57-.73.87-1.11a7.89,7.89,0,0,0,1.93-6.9c-.11-.5,0-1-.1-1.58-1.06.79-1.69,2.24-3.52,2,2-.58,2.74-2.19,3.56-3.68a9,9,0,0,1,2.87-3.43,4.69,4.69,0,0,1,3.83-.77,13,13,0,0,0,4.36.27c.49,0,.6.07.42.57a6.54,6.54,0,0,0-.15,3.77.93.93,0,0,0,.73.8c1.14.32,2.26.69,3.46,1.06-.53.23-1,.48-1.11,1a2.93,2.93,0,0,0,.12,1.58l2.05,5.25a5.84,5.84,0,0,0,.8,1.22c.22.28.14.45-.14.59a6.88,6.88,0,0,1-1.71.57c-.35.08-.42-.13-.47-.42a8.34,8.34,0,0,0-1.71-3.38,9.32,9.32,0,0,0-.69,3c0,.56-.21.77-.7.77s-1.39.26-1.83-.14.09-1.08.19-1.62a17,17,0,0,0,.29-4.09c0-.28,0-.53-.42-.43a13.13,13.13,0,0,1-4.62.38" transform="translate(-1.31 -1.19)"/><path class="cls-5" d="M1126.88,139.84h-79.75c-.19,0-.3-.09-.3-.3s.11-.29.3-.29h159.72c.17,0,.23.12.23.28s-.06.28-.23.29h-80" transform="translate(-1.31 -1.19)"/><path class="cls-5" d="M1074.09,94.33a7.32,7.32,0,0,1,1.25-3.86.72.72,0,0,1,1-.31c1.06.48,2.15.88,3.22,1.3a1.48,1.48,0,0,0,1.19.14c.45-.17.76.28,1,.61a9.81,9.81,0,0,1,1.49,3.72c.16.75.26,1.51.39,2.26.19,1,.74,1.38,1.79,1.25a4.48,4.48,0,0,0,2.42-1.29c.33-.29.63-.62,1-.91a1.35,1.35,0,0,1,1.78,0,1.53,1.53,0,0,1,.32,1.83,1.19,1.19,0,0,1-1.27.52c-.12,0-.23-.09-.22-.23s.12-.18.25-.15c.41.09.53-.16.57-.5s0-.52-.31-.62-.58.07-.76.33a6.65,6.65,0,0,1-2.46,2.22c-1.68.82-4.48.76-5.88-1a1.61,1.61,0,0,0-.69-.43c-1.59-.71-3.17-1.44-4.79-2.09a1.55,1.55,0,0,1-1-1.18,10.17,10.17,0,0,1-.26-1.63" transform="translate(-1.31 -1.19)"/><path class="cls-5" d="M1057.07,128.55a2.15,2.15,0,0,0-2.24-2.24,2.23,2.23,0,1,0,0,4.45,2.1,2.1,0,0,0,2.24-2.21m.13-3c.23-.3,0-.8.34-.88a5.48,5.48,0,0,1,1.46,0c.23,0,.21.27.22.45,0,2.91,0,5.82,0,8.72a3.63,3.63,0,0,1-3.46,3.17,4.6,4.6,0,0,1-4.21-1.34,3.51,3.51,0,0,1-.74-1.48c0-.15-.1-.32,0-.45a2.23,2.23,0,0,1,1.92.34,2.31,2.31,0,0,0,2.25,1.26,2.09,2.09,0,0,0,2.06-1.28,8,8,0,0,0,.16-2.34,4.17,4.17,0,0,1-3.24.86,3.54,3.54,0,0,1-2.72-1.72,4.46,4.46,0,0,1,.71-5.39c1.46-1.3,3.44-1.27,5.23.11" transform="translate(-1.31 -1.19)"/><path class="cls-5" d="M1191.05,125.47c1.74-1.54,3.65-1,4.43.31,0,0,.1,0,.12,0a3.29,3.29,0,0,1,3.91-1c1.44.47,1.86,1.74,1.93,3.1s0,2.74,0,4.11c0,.34-.13.43-.45.45-1.49.1-1.49.11-1.49-1.35,0-1,0-2,0-3s-.46-1.58-1.14-1.69a1.63,1.63,0,0,0-1.92,1.23,2.43,2.43,0,0,0-.13.89c0,.84,0,1.67,0,2.51,0,1.46,0,1.44-1.44,1.42-.44,0-.54-.18-.53-.58,0-1.26,0-2.51,0-3.77a1.6,1.6,0,0,0-1.94-1.71,1.68,1.68,0,0,0-1.28,1.69c0,1.2,0,2.41,0,3.62,0,.58-.14.77-.73.75-1.22,0-1.22,0-1.22-1.22,0-2,0-3.95,0-5.92,0-.56.15-.78.7-.69h.28c.53-.05,1,0,.89.85" transform="translate(-1.31 -1.19)"/><path class="cls-5" d="M1125.69,130.76a2.23,2.23,0,1,0,0-4.45,2.14,2.14,0,0,0-2.23,2.24,2.1,2.1,0,0,0,2.25,2.21m-2.47-5.21c2.13-1.37,4.2-1.33,5.46.08a4.43,4.43,0,0,1,.23,5.64c-1.2,1.54-3.38,1.75-5.72.49,0,1.53,0,3,0,4.54,0,.56-.11.77-.72.74-1.21,0-1.21,0-1.21-1.21V125.57c0-1-.12-.94.92-.94s.91,0,1,.92" transform="translate(-1.31 -1.19)"/><path class="cls-5" d="M1094.18,128.54a2.14,2.14,0,0,0-2.24-2.23,2.23,2.23,0,1,0,0,4.45,2.1,2.1,0,0,0,2.23-2.22m-4.62,3.17c0,1.61,0,3.12,0,4.62,0,.53-.11.73-.68.71-1.26,0-1.26,0-1.26-1.25,0-3.46,0-6.93,0-10.39,0-.67.2-.82.82-.8s1.27,0,1.08,1c2.21-1.43,4.27-1.34,5.59.18a4.47,4.47,0,0,1,0,5.71,4.23,4.23,0,0,1-5.57.26" transform="translate(-1.31 -1.19)"/><path class="cls-5" d="M1145.1,130.9a2.27,2.27,0,0,0,2.33-2.4,2.35,2.35,0,0,0-2.26-2.36,2.38,2.38,0,1,0-.07,4.76m2.42.55c-2.11,1.59-4.24,1.61-5.6.13a4.69,4.69,0,0,1-.06-5.89c1.36-1.5,3.62-1.58,5.52-.18.23-.25-.12-.75.27-.84a5.41,5.41,0,0,1,1.45,0c.26,0,.21.27.21.45,0,2.3,0,4.59,0,6.89,0,.35-.14.46-.45.43h-.35c-.61,0-1.33.15-1-1" transform="translate(-1.31 -1.19)"/><path class="cls-5" d="M1115.51,127.65H1117c.64,0,.72-.13.4-.65a2.15,2.15,0,0,0-2.13-.89,2.08,2.08,0,0,0-1.75,1.08c-.19.29-.1.47.28.46.58,0,1.16,0,1.74,0m.91,1.57c-.86,0-1.72,0-2.58,0-.53,0-.54.23-.34.6a2,2,0,0,0,1.62,1.06,3.71,3.71,0,0,0,2.29-.41c.18-.11.35-.26.55,0s.75.56.88,1c0,.08-.19.24-.31.34a5.33,5.33,0,0,1-5.66.08,4.39,4.39,0,0,1-1.37-4.71,3.8,3.8,0,0,1,3.49-2.72c1.56-.08,3,.2,3.87,1.65a4.78,4.78,0,0,1,.58,2.75c0,.39-.25.37-.52.37h-2.5" transform="translate(-1.31 -1.19)"/><path class="cls-5" d="M1101.76,127.65h1.54c.17,0,.41.09.51-.09s0-.4-.13-.57a2.17,2.17,0,0,0-2.2-.87,2.08,2.08,0,0,0-1.72,1.13c-.17.29-.07.41.26.41.58,0,1.16,0,1.74,0m.93,1.57c-.84,0-1.67,0-2.51,0-.58,0-.56.25-.36.64a2.56,2.56,0,0,0,2.84,1c.24,0,.48-.17.72-.22s.5-.47.81-.25a6.36,6.36,0,0,1,.94.93c.15.18,0,.29-.15.4a5.19,5.19,0,0,1-6.15-.12,4.46,4.46,0,0,1-.15-6,4.7,4.7,0,0,1,5-.84,3.85,3.85,0,0,1,2.1,4c0,.37-.22.4-.5.4h-2.58" transform="translate(-1.31 -1.19)"/><path class="cls-5" d="M1133.52,125.62a3.42,3.42,0,0,1,4.1-.68c1.27.62,1.52,1.88,1.58,3.13s0,2.56,0,3.84c0,.46-.18.53-.58.53-1.37,0-1.37,0-1.37-1.33,0-.93,0-1.86,0-2.79,0-1.21-.5-1.85-1.57-2a1.9,1.9,0,0,0-2.09,1.55,10.93,10.93,0,0,0-.09,2.36c0,.32,0,.65,0,1,0,1.27,0,1.24-1.24,1.26-.49,0-.63-.15-.62-.64,0-2.76,0-5.53,0-8.3,0-.55,0-1.11,0-1.67,0-.37.13-.46.48-.48,1.37,0,1.37-.06,1.37,1.27Z" transform="translate(-1.31 -1.19)"/><path class="cls-5" d="M1071.91,126.25a2.13,2.13,0,0,0-2.16,2.29,2.16,2.16,0,0,0,2.15,2.32,2.19,2.19,0,0,0,2.15-2.26,2.23,2.23,0,0,0-2.14-2.35m4.09,2.27a4.09,4.09,0,1,1-8.17,0,4.09,4.09,0,0,1,8.17,0" transform="translate(-1.31 -1.19)"/><path class="cls-5" d="M1183.4,126.24a2.31,2.31,0,1,0,2.16,2.33,2.23,2.23,0,0,0-2.16-2.33m0-1.77a4,4,0,0,1,4.06,4,4.08,4.08,0,1,1-8.16,0,4,4,0,0,1,4.1-4" transform="translate(-1.31 -1.19)"/><path class="cls-5" d="M1083.72,131.48a4.09,4.09,0,0,1-2.48,1.09,3.12,3.12,0,0,1-3.39-3.1c-.09-1.43,0-2.88,0-4.32,0-.33.13-.41.45-.43,1.49-.09,1.49-.1,1.49,1.35,0,.93,0,1.86,0,2.79a1.82,1.82,0,0,0,1.84,2,1.94,1.94,0,0,0,2-1.9c.06-1.2.05-2.41,0-3.62,0-.55.16-.72.71-.71,1.21,0,1.21,0,1.21,1.22,0,2,0,4,0,6,0,.51-.11.67-.64.69-.72,0-1.25,0-1.17-1.06" transform="translate(-1.31 -1.19)"/><path class="cls-5" d="M1153.16,125.6a5.28,5.28,0,0,1,1.93-1,3.24,3.24,0,0,1,3.94,3.17c.09,1.42,0,2.84,0,4.26,0,.28-.08.44-.39.41h-.14c-1.37,0-1.37,0-1.37-1.33,0-.93,0-1.86,0-2.79a1.83,1.83,0,0,0-1.81-2,2,2,0,0,0-2,2c0,1.14,0,2.28,0,3.42,0,.56-.1.78-.71.76-1.2,0-1.2,0-1.2-1.23,0-2,0-4,0-6,0-.47.1-.64.61-.64.68,0,1.34-.07,1.19,1" transform="translate(-1.31 -1.19)"/><path class="cls-5" d="M1175.34,124.44a3.44,3.44,0,0,1,2.34.77c.31.21.44.4.09.69a2.11,2.11,0,0,0-.39.4c-.29.41-.56.5-1.06.2a2.21,2.21,0,0,0-2.73.49,2.32,2.32,0,0,0,2.81,3.61c.23-.1.45-.46.73-.23a6.69,6.69,0,0,1,1,1c.13.15-.09.27-.21.38a4.56,4.56,0,0,1-4.91.35,4,4,0,0,1-1.91-3.89,3.85,3.85,0,0,1,4.22-3.81" transform="translate(-1.31 -1.19)"/><path class="cls-5" d="M1164.34,132.55c-1.76,0-2.68-.93-2.73-2.79,0-.95,0-1.91,0-2.86,0-.43-.08-.65-.57-.62-.28,0-.72.17-.82-.14a2.6,2.6,0,0,1,0-1.3c.06-.31.44-.18.67-.16.59.06.75-.17.74-.75,0-1.35.14-1.48,1.5-1.44.3,0,.41.09.42.39,0,.57-.25,1.29.14,1.68s1.07.09,1.62.11c.33,0,.46.13.44.46a4,4,0,0,0,0,.69c0,.38-.14.47-.49.48-.55,0-1.26-.26-1.61.12s-.09,1.11-.12,1.68,0,.93,0,1.4c0,1,.43,1.39,1.43,1.26.19,0,.48-.28.6.07s.52.94.35,1.36-.72.33-1.14.36h-.42" transform="translate(-1.31 -1.19)"/><path class="cls-5" d="M1062.77,125.42a3.24,3.24,0,0,1,3.81-.59c.36.2.48.41.24.77a2.55,2.55,0,0,0-.23.43c-.2.52-.35.79-1.06.48a1.92,1.92,0,0,0-2.74,1.86c0,1.14,0,2.28,0,3.41,0,.53-.15.68-.67.67-1.2,0-1.2,0-1.2-1.23,0-1.95,0-3.91,0-5.86,0-.64.2-.82.79-.75s1.17-.2,1.07.81" transform="translate(-1.31 -1.19)"/><path class="cls-5" d="M1107.66,126.83c0-1.61,0-3.21,0-4.81,0-.46.08-.66.6-.65,1.27,0,1.27,0,1.27,1.29,0,3,0,6.09,0,9.13,0,.53-.15.67-.66.66-1.21,0-1.21,0-1.21-1.23Z" transform="translate(-1.31 -1.19)"/><path class="cls-5" d="M1062.63,143.83c-.19.24-.79-.37-.86.44s.45.69.91.66,1.13.15,1.15-.53-.66-.52-1.2-.57m-.15,3.07a3.66,3.66,0,0,0,1-.08c.29-.08.54-.21.54-.53s-.26-.47-.54-.56a5.7,5.7,0,0,0-1.24-.07c-.33,0-.41.12-.44.44,0,.6.08,1,.71.8m-1.52-1.57v-.76c0-1.52,0-1.52,1.54-1.5a5.76,5.76,0,0,1,1.18.1,1.14,1.14,0,0,1,.77,1.84c-.16.22-.17.31,0,.49a1.08,1.08,0,0,1,.3,1.27,1.26,1.26,0,0,1-1.18.84c-.74,0-1.49,0-2.23,0-.31,0-.41-.12-.41-.41,0-.63,0-1.26,0-1.89" transform="translate(-1.31 -1.19)"/><path class="cls-5" d="M1092,146.79c1,0,1.43-.28,1.66-1a1.43,1.43,0,0,0-.4-1.52,2,2,0,0,0-1.71-.36c-.26,0-.19.28-.19.45,0,.58,0,1.16,0,1.74s.1.86.65.72m-1.53-1.43c0-.6,0-1.21,0-1.81,0-.35.11-.51.48-.49a14.3,14.3,0,0,1,1.73.07,2.26,2.26,0,0,1-.19,4.49c-2,.1-2,.1-2-1.91v-.35" transform="translate(-1.31 -1.19)"/><path class="cls-5" d="M1167.32,143.86c-.23.1-.63-.21-.81.22-.31.77,0,1.29.85,1.29s1.37-.27,1.3-.8c-.1-.77-.72-.72-1.34-.71m2.34,3.68a1.11,1.11,0,0,1-1.4-.4c-.2-.29-.47-.52-.68-.8a.71.71,0,0,0-.81-.23c-.37.07-.17.41-.23.63s.29.91-.48.9c-.29,0-.41-.11-.41-.41v-3.76c0-.29.1-.43.41-.41a17.23,17.23,0,0,1,2.15.07,1.43,1.43,0,0,1,1.25,1.22,1.27,1.27,0,0,1-.72,1.51c-.43.2-.3.34-.07.57s.64.71,1,1.11" transform="translate(-1.31 -1.19)"/><path class="cls-5" d="M1066.74,145.36c0-.6,0-1.21,0-1.81,0-.35.12-.5.49-.5.83,0,1.67,0,2.51,0,.33,0,.44.12.44.45s-.19.37-.45.36h-1.33c-.36,0-.78-.14-.79.53s.36.57.76.57h1.32c.27,0,.44.06.44.38s-.13.45-.45.44c-.53,0-1.07,0-1.6,0s-.45.2-.45.52.07.52.46.5c.55,0,1.11,0,1.67,0,.29,0,.41.09.42.4s-.09.46-.43.46q-1.29,0-2.58,0c-.36,0-.43-.16-.43-.47,0-.6,0-1.2,0-1.81" transform="translate(-1.31 -1.19)"/><path class="cls-5" d="M1177.75,145.37a1.42,1.42,0,0,0,1.53,1.57,1.4,1.4,0,0,0,1.45-1.57,1.49,1.49,0,1,0-3,0m-.84,0a2.21,2.21,0,0,1,2.38-2.33,2.28,2.28,0,0,1,2.34,2.34,2.34,2.34,0,0,1-2.43,2.42,2.24,2.24,0,0,1-2.29-2.43" transform="translate(-1.31 -1.19)"/><path class="cls-5" d="M1130.86,143.84c-.22.15-.67-.21-.79.22a1.54,1.54,0,0,0,0,1.21c.23.38,1.84,0,2-.4a.68.68,0,0,0-.5-1,4,4,0,0,0-.74-.06m2.35,3.72a1.28,1.28,0,0,1-1.47-.49c-.32-.37-.51-1-1.16-1-.37,0-.59.06-.54.49,0,.23,0,.46,0,.7s-.19.37-.45.36-.4,0-.4-.34q0-1.95,0-3.9c0-.24.13-.33.35-.33a11,11,0,0,1,2.36.1,1.38,1.38,0,0,1,1.1,1.2,1.3,1.3,0,0,1-.67,1.48c-.45.21-.35.35-.09.62s.6.69,1,1.1" transform="translate(-1.31 -1.19)"/><path class="cls-5" d="M1107,146.94a1.38,1.38,0,0,0,1.51-1.5,1.44,1.44,0,0,0-1.47-1.64,1.38,1.38,0,0,0-1.5,1.51,1.4,1.4,0,0,0,1.46,1.63m2.35-1.53a2.35,2.35,0,1,1-2.3-2.41,2.21,2.21,0,0,1,2.3,2.41" transform="translate(-1.31 -1.19)"/><path class="cls-5" d="M1112.93,143.86c-.45-.08-.84,0-.79.74,0,.57.11.82.76.78,1-.06,1.38-.22,1.38-.77s-.34-.75-1.35-.75m2.4,3.7a1.3,1.3,0,0,1-1.52-.54c-.29-.37-.48-.92-1.11-.94-.38,0-.57.08-.53.5,0,.23,0,.46,0,.69s-.13.37-.38.36-.47,0-.47-.34c0-1.3,0-2.6,0-3.9,0-.23.12-.33.34-.33a11,11,0,0,1,2.36.1,1.36,1.36,0,0,1,1.09,1.21,1.22,1.22,0,0,1-.61,1.42c-.54.26-.35.44-.08.73s.57.66.9,1" transform="translate(-1.31 -1.19)"/><path class="cls-5" d="M1081.78,145.38a1.48,1.48,0,0,0-1.44-1.62,1.46,1.46,0,0,0-1.53,1.6,1.49,1.49,0,1,0,3,0m-3.82,0a2.22,2.22,0,0,1,2.32-2.39,2.29,2.29,0,0,1,2.4,2.35,2.34,2.34,0,0,1-2.37,2.41,2.24,2.24,0,0,1-2.35-2.37" transform="translate(-1.31 -1.19)"/><path class="cls-5" d="M1126.41,145.44a1.44,1.44,0,0,0-1.47-1.64,1.39,1.39,0,0,0-1.5,1.51c0,1,.51,1.62,1.46,1.63a1.38,1.38,0,0,0,1.51-1.5m.84,0a2.35,2.35,0,1,1-2.3-2.4,2.21,2.21,0,0,1,2.3,2.4" transform="translate(-1.31 -1.19)"/><path class="cls-5" d="M1085.51,144.76c0,.8,0,1.58,0,2.36,0,.31,0,.52-.43.52s-.41-.25-.41-.54c0-1.14,0-2.28,0-3.42,0-.21-.14-.5.18-.6a.63.63,0,0,1,.72.28c.52.69,1.06,1.36,1.59,2,.1.12.16.29.43.34,0-.73,0-1.43,0-2.14,0-.31,0-.54.43-.54s.42.24.42.54c0,1.16,0,2.33,0,3.49,0,.18.12.45-.17.53s-.43-.07-.58-.27l-1.71-2.2c-.11-.14-.17-.33-.46-.38" transform="translate(-1.31 -1.19)"/><path class="cls-5" d="M1189.32,145.39c0-.63,0-1.26,0-1.88,0-.33.12-.46.45-.45h2.51c.27,0,.42.07.43.39s-.15.43-.46.42c-.56,0-1.12,0-1.67,0s-.41.26-.41.55-.05.57.4.55,1.11,0,1.67,0c.27,0,.43.06.43.38s-.14.45-.46.44c-.53,0-1.06,0-1.6,0s-.44.19-.45.52.06.52.46.5c.55,0,1.11,0,1.67,0,.36,0,.41.16.42.47s-.16.39-.43.38c-.84,0-1.67,0-2.51,0-.32,0-.46-.11-.45-.44,0-.61,0-1.21,0-1.81" transform="translate(-1.31 -1.19)"/><path class="cls-5" d="M1145.79,145.36c0-.6,0-1.2,0-1.81,0-.35.1-.5.47-.49h2.44c.29,0,.47.05.47.42s-.21.4-.49.39c-.49,0-1,0-1.46,0s-.6.12-.6.59.18.54.58.52,1,0,1.53,0c.3,0,.41.11.41.41s-.11.42-.41.41c-.49,0-1,0-1.46,0s-.66,0-.65.53.26.5.62.49,1,0,1.53,0c.3,0,.4.12.4.41s-.06.44-.38.43c-.86,0-1.72,0-2.58,0-.35,0-.43-.16-.42-.47,0-.6,0-1.2,0-1.81" transform="translate(-1.31 -1.19)"/><path class="cls-5" d="M1137,144c-.27.6-.47,1.07-.68,1.52-.13.27-.13.39.23.42,1.33.11,1.36.09.82-1.12-.09-.23-.2-.45-.37-.82m-2.51,3.52c.65-1.43,1.27-2.84,1.93-4.24a.66.66,0,0,1,1.13,0c.61,1.3,1.18,2.62,1.77,3.93,0,.12.16.3,0,.34s-.55.15-.77-.11-.15-.66-.53-.68c-.69,0-1.39,0-2.08,0-.16,0-.24.15-.28.28-.16.61-.57.64-1.14.47" transform="translate(-1.31 -1.19)"/><path class="cls-5" d="M1185.42,147.75a2.09,2.09,0,0,1-1.71-.65c-.12-.14-.37-.31-.14-.51s.44-.37.72-.07a1.62,1.62,0,0,0,1.61.4.62.62,0,0,0,.57-.61c0-.33-.22-.49-.52-.56-.45-.11-.9-.19-1.35-.32a1.18,1.18,0,0,1-1-1.19,1.26,1.26,0,0,1,1-1.2,2.29,2.29,0,0,1,2.12.27c.16.12.49.25.28.53s-.41.39-.72.12a1.5,1.5,0,0,0-1.25-.24c-.3,0-.56.19-.58.51s.24.43.5.49l1,.23c1,.22,1.38.65,1.35,1.4s-.58,1.21-1.45,1.36a3.91,3.91,0,0,1-.47,0" transform="translate(-1.31 -1.19)"/><path class="cls-5" d="M1173,145.52h.25c.5,0,.94-.08,1.11-.63a.72.72,0,0,0-.37-.89,1.77,1.77,0,0,0-1.66,0c-.32.21-.17.88-.07,1.32s.52.14.74.22m-1.62-.17c0-.6,0-1.21,0-1.81,0-.3.05-.5.42-.48a14.06,14.06,0,0,1,2.15.08,1.58,1.58,0,0,1,1.29,1.52,1.56,1.56,0,0,1-1.3,1.57,2.08,2.08,0,0,1-.55.07c-.75-.08-1.29,0-1.12,1,0,.34-.22.34-.47.34s-.42-.09-.42-.4c0-.62,0-1.25,0-1.88" transform="translate(-1.31 -1.19)"/><path class="cls-5" d="M1155.4,145.52h.46a.81.81,0,0,0,.89-.86.78.78,0,0,0-.87-.8q-.45,0-.9,0c-.14,0-.32,0-.34.15a2.8,2.8,0,0,0,0,1.38c.11.27.51.08.73.13m-1.64-.2a5.23,5.23,0,0,1,0-.56c.08-.55-.24-1.2.18-1.65s2.73,0,3.09.34a1.53,1.53,0,0,1,.53,1.62,1.46,1.46,0,0,1-1.31,1.17,3.55,3.55,0,0,1-.55.06c-.77-.1-1.27,0-1.11,1,.06.29-.15.34-.39.34s-.45,0-.44-.36c0-.65,0-1.3,0-2" transform="translate(-1.31 -1.19)"/><path class="cls-5" d="M1118.68,145.52h.45a.83.83,0,0,0,.91-.85.81.81,0,0,0-.93-.82h-.84c-.13,0-.33,0-.34.15a4.48,4.48,0,0,0,0,1.37c.08.28.5.09.73.14m-1.63-.21c0-.58,0-1.16,0-1.74,0-.4.14-.53.52-.51a15.1,15.1,0,0,1,2,.08,1.57,1.57,0,0,1,0,3.09,2.63,2.63,0,0,1-.48.06c-.78,0-1.45,0-1.25,1.07,0,.32-.26.25-.46.27s-.38-.09-.37-.36c0-.65,0-1.31,0-2" transform="translate(-1.31 -1.19)"/><path class="cls-5" d="M1163.51,144.79a5.18,5.18,0,0,1-.15,1.77,1.91,1.91,0,0,1-2.15,1.16,1.94,1.94,0,0,1-1.73-1.8c0-.81,0-1.62,0-2.44,0-.28.08-.42.39-.43s.47.09.46.44c0,.67,0,1.34,0,2,0,1,.4,1.42,1.21,1.43s1.14-.43,1.15-1.4c0-.67,0-1.34,0-2,0-.31.07-.48.42-.48s.44.16.42.47,0,.79,0,1.27" transform="translate(-1.31 -1.19)"/><path class="cls-5" d="M1098.89,145.35a2.24,2.24,0,0,1,1.15-2.08,2.41,2.41,0,0,1,2.46,0c.16.09.53.14.33.46a.49.49,0,0,1-.73.24,1.52,1.52,0,0,0-1.87.22,1.62,1.62,0,0,0-.31,1.87,1.51,1.51,0,0,0,2.14.65c.42-.2.68-.16.82.22s-.28.42-.49.52a2.36,2.36,0,0,1-3.5-2.12" transform="translate(-1.31 -1.19)"/><path class="cls-5" d="M1076.42,143.14c-.3.44-.55.83-.83,1.19a3.45,3.45,0,0,0-1,2.84c.06.31-.06.48-.41.47s-.49-.06-.43-.38c.3-1.49-.68-2.46-1.37-3.56-.11-.17-.45-.41-.2-.57a.66.66,0,0,1,.93.15c.27.4.53.82.76,1.24s.35.41.57,0,.4-.57.56-.88a1,1,0,0,1,1.39-.53" transform="translate(-1.31 -1.19)"/><path class="cls-5" d="M1142.15,143h1.39c.27,0,.43.05.44.38s-.12.43-.45.44c-1.06.06-1.06.07-1.06,1.13,0,.72,0,1.44,0,2.16,0,.29,0,.49-.4.49s-.42-.18-.41-.48c0-.86,0-1.72,0-2.57,0-.57-.13-.83-.72-.74a2.94,2.94,0,0,1-.42,0c-.31,0-.32-.19-.32-.41s0-.41.34-.4h1.6" transform="translate(-1.31 -1.19)"/><path class="cls-5" d="M1206.57,120.86c-.52.22-.59.93-1,.88s-.54-.56-.93-1v1.51c0,.21,0,.45-.29.44s-.22-.24-.22-.41q0-1,0-2c0-.15-.07-.35.14-.42a.51.51,0,0,1,.57.14c.28.31.42.9.8.9s.51-.6.79-.9a.48.48,0,0,1,.5-.15c.23,0,.2.23.2.39v2c0,.19,0,.38-.27.39s-.29-.18-.29-.38v-1.45" transform="translate(-1.31 -1.19)"/><path class="cls-5" d="M1168.62,132.56a1.08,1.08,0,0,1-1.13-1.06,1.15,1.15,0,1,1,2.3,0,1.08,1.08,0,0,1-1.17,1.09" transform="translate(-1.31 -1.19)"/><path class="cls-5" d="M1202.69,119.85h.77c.16,0,.34,0,.34.23s-.17.28-.34.26c-.61-.08-.6.31-.58.73s0,.84,0,1.25c0,.16,0,.35-.21.36s-.29-.17-.29-.37c0-.44,0-.88,0-1.32s0-.7-.53-.65c-.2,0-.38,0-.36-.29s.22-.19.37-.2h.83" transform="translate(-1.31 -1.19)"/><path class="cls-5" d="M1201.73,78.65l.26-.15.06,0-.21.22-.11-.12" transform="translate(-1.31 -1.19)"/><path class="cls-5" d="M1202,78.5l.14-.06a.76.76,0,0,0-.08.11l-.06,0" transform="translate(-1.31 -1.19)"/><path class="cls-5" d="M1153.93,94.36l-.15.26-.12-.12.22-.2,0,.06" transform="translate(-1.31 -1.19)"/><path class="cls-5" d="M1184.27,77.32c-.08-.06-.13-.17,0-.21s.09.08.12.15l-.07.06" transform="translate(-1.31 -1.19)"/><path class="cls-5" d="M1153.88,94.3l.09-.09c.07.07,0,.11,0,.15l0-.06" transform="translate(-1.31 -1.19)"/><path class="cls-5" d="M1106.29,99.33l0-.17.09,0a1.71,1.71,0,0,1-.11.14h0" transform="translate(-1.31 -1.19)"/></g></svg>