<svg height="682pt" viewBox="-53 -21 682 682.66669" width="682pt" xmlns="http://www.w3.org/2000/svg"><path d="m120.832031 597.335938h330.667969c7.070312 0 13.855469-2.8125 18.855469-7.8125 5.003906-5 7.8125-11.785157 7.8125-18.855469v-362.667969c0-7.070312-2.808594-13.855469-7.8125-18.855469-5-5.003906-11.785157-7.8125-18.855469-7.8125h-330.667969c-14.726562 0-26.664062 11.941407-26.664062 26.667969v362.667969c0 14.726562 11.9375 26.667969 26.664062 26.667969zm-5.332031-389.335938c0-2.945312 2.386719-5.335938 5.332031-5.335938h330.667969c2.945312 0 5.332031 2.390626 5.332031 5.335938v362.667969c0 2.945312-2.386719 5.332031-5.332031 5.332031h-330.667969c-2.945312 0-5.332031-2.386719-5.332031-5.332031zm0 0"/><path d="m163.5 554.667969h32c7.070312 0 13.851562-2.8125 18.859375-7.8125 5-5 7.804687-11.78125 7.804687-18.855469v-277.332031c0-7.074219-2.804687-13.855469-7.804687-18.855469-5.007813-5-11.789063-7.8125-18.859375-7.8125h-32c-14.726562 0-26.667969 11.9375-26.667969 26.667969v277.332031c0 14.730469 11.941407 26.667969 26.667969 26.667969zm-5.332031-304c0-2.949219 2.386719-5.335938 5.332031-5.335938h32c2.945312 0 5.332031 2.386719 5.332031 5.335938v277.332031c0 2.945312-2.386719 5.335938-5.332031 5.335938h-32c-2.945312 0-5.332031-2.390626-5.332031-5.335938zm0 0"/><path d="m270.167969 554.667969h31.996093c14.726563 0 26.671876-11.9375 26.671876-26.667969v-277.332031c0-14.730469-11.945313-26.667969-26.671876-26.667969h-31.996093c-14.730469 0-26.667969 11.9375-26.667969 26.667969v277.332031c0 14.730469 11.9375 26.667969 26.667969 26.667969zm-5.335938-304c0-2.949219 2.386719-5.335938 5.335938-5.335938h31.996093c2.945313 0 5.332032 2.386719 5.332032 5.335938v277.332031c0 2.945312-2.386719 5.335938-5.332032 5.335938h-31.996093c-2.949219 0-5.335938-2.390626-5.335938-5.335938zm0 0"/><path d="m376.832031 554.667969h32.003907c14.726562 0 26.664062-11.9375 26.664062-26.667969v-277.332031c0-14.730469-11.9375-26.667969-26.664062-26.667969h-32.003907c-14.726562 0-26.664062 11.9375-26.664062 26.667969v277.332031c0 14.730469 11.9375 26.667969 26.664062 26.667969zm-5.332031-304c0-2.949219 2.390625-5.335938 5.332031-5.335938h32.003907c2.945312 0 5.332031 2.386719 5.332031 5.335938v277.332031c0 2.945312-2.386719 5.335938-5.332031 5.335938h-32.003907c-2.941406 0-5.332031-2.390626-5.332031-5.335938zm0 0"/><path d="m435.5 90.667969v-26.667969c-.035156-35.332031-28.667969-63.9648438-64-64h-160c-35.332031.0351562-63.964844 28.667969-64.003906 64v26.667969c.007812 1.789062.1875 3.574219.546875 5.332031h-123.210938c-14.726562 0-26.664062 11.9375-26.664062 26.664062v10.671876c0 14.726562 11.9375 26.664062 26.664062 26.664062h26.667969v416c.035156 35.332031 28.667969 63.964844 64 64h341.332031c35.332031-.035156 63.964844-28.667969 64-64v-416h26.664063c14.734375 0 26.671875-11.9375 26.671875-26.664062v-10.671876c0-14.726562-11.9375-26.664062-26.671875-26.664062h-112.542969c.363281-1.757812.546875-3.542969.546875-5.332031zm-266.664062 0v-26.667969c0-23.566406 19.101562-42.667969 42.664062-42.667969h160c23.566406 0 42.667969 19.101563 42.667969 42.667969v26.667969c0 2.945312-2.386719 5.332031-5.332031 5.332031h-16v-26.667969c0-14.726562-11.941407-26.667969-26.671876-26.667969h-149.332031c-14.726562 0-26.664062 11.941407-26.664062 26.667969v26.667969h-16c-2.945313 0-5.332031-2.386719-5.332031-5.332031zm42.664062 5.332031v-26.667969c0-2.945312 2.390625-5.332031 5.332031-5.332031h149.332031c2.949219 0 5.335938 2.386719 5.335938 5.332031v26.667969zm288 480c0 23.566406-19.101562 42.667969-42.667969 42.667969h-341.332031c-23.5625 0-42.664062-19.101563-42.664062-42.667969v-416h426.664062zm53.335938-453.335938v10.671876c0 2.945312-2.390626 5.332031-5.339844 5.332031h-522.664063c-2.945312 0-5.332031-2.386719-5.332031-5.332031v-10.671876c0-2.941406 2.386719-5.328124 5.332031-5.328124h522.664063c2.949218 0 5.339844 2.386718 5.339844 5.328124zm0 0"/></svg>