<?xml version="1.0" encoding="iso-8859-1"?>
<!-- Generator: Adobe Illustrator 19.0.0, SVG Export Plug-In . SVG Version: 6.00 Build 0)  -->
<svg version="1.1" id="Capa_1" xmlns="http://www.w3.org/2000/svg" xmlns:xlink="http://www.w3.org/1999/xlink" x="0px" y="0px"
	 viewBox="0 0 512.027 512.027" style="enable-background:new 0 0 512.027 512.027;" xml:space="preserve">
<g>
	<g>
		<g>
			<path d="M397.815,148.698c16.474,0,30.653-11.64,33.862-27.798c3.209-16.158-5.445-32.333-20.669-38.628
				c-15.224-6.295-32.774-0.958-41.915,12.748c-9.141,13.706-7.324,31.96,4.338,43.595
				C379.894,145.086,388.669,148.715,397.815,148.698z M381.733,107.576c2.695-6.503,9.042-10.744,16.081-10.745v0
				c7.886-0.005,14.791,5.29,16.833,12.907c2.042,7.617-1.29,15.656-8.122,19.595c-6.832,3.94-15.458,2.797-21.028-2.785
				C380.524,121.566,379.038,114.08,381.733,107.576z"/>
			<path d="M417.118,180.573c0.71-0.206,1.414-0.427,2.117-0.656c0.405-0.132,0.81-0.262,1.211-0.401
				c0.548-0.19,1.093-0.389,1.636-0.592c0.305-0.115,0.607-0.233,0.91-0.352c1.882-0.736,3.73-1.554,5.541-2.454
				c0.205-0.102,0.409-0.205,0.612-0.309c1.844-0.939,3.645-1.961,5.401-3.065c0.198-0.124,0.395-0.249,0.591-0.375
				c0.555-0.357,1.107-0.718,1.652-1.091c0.074-0.051,0.146-0.104,0.221-0.155c1.001-0.691,1.984-1.412,2.95-2.158
				c0.311-0.24,0.622-0.481,0.929-0.726c0.408-0.326,0.814-0.654,1.214-0.99c0.56-0.468,1.112-0.946,1.656-1.432
				c0.309-0.276,0.615-0.557,0.919-0.839c0.56-0.518,1.112-1.045,1.655-1.581c0.109-0.108,0.223-0.208,0.331-0.316
				c24.082-24.074,97.16-97.141,49.604-146.049c-0.306-0.377-0.647-0.721-1.012-1.04C485.207,5.71,471.411-0.066,457.015,0.023
				h-0.075c-42.617,0-88.417,45.8-107.984,65.367c-8.272,8.229-14.273,18.409-17.502,29.551l-30.256,12.932
				c-3.27,1.405-7.065,0.69-9.6-1.808L275.39,89.855c-6.718-6.7-17.59-6.7-24.308,0l-3.608,3.608
				c-10.11,10.315-12.723,25.835-6.55,38.892c3.887,5.909,3.015,13.748-2.075,18.658c-12.524,11.018-25.638,21.347-39.283,30.942
				c-31.376,22.256-61.172,46.659-89.175,73.033C68.857,296.523,18.407,358.206,1.399,406.731
				c-3.211,9.352-0.793,19.718,6.225,26.684c4.27,4.282,10.07,6.687,16.117,6.683c5.959,0.016,11.679-2.344,15.892-6.558
				c0.358-0.358,0.692-0.742,1.4-1.575c23.742-28.683,105.917-126.183,166.5-176.617c50.3-41.925,82.933-60.408,97.925-67.7
				c8.539-4.177,16.321-9.751,23.025-16.492l14.676-14.677c1.983,2.562,4.14,4.98,6.456,7.236c1.88,1.832,3.863,3.556,5.943,5.166
				l-14.675,14.675c-6.742,6.707-12.319,14.492-16.5,23.033c-7.292,14.975-25.775,47.608-67.7,97.908
				c-50.467,60.6-147.967,142.733-177.092,166.849c-0.217,0.175-0.925,0.808-1.125,1c-4.251,4.234-6.621,10-6.575,16
				c0.014,6.016,2.422,11.779,6.692,16.017c4.876,4.878,11.486,7.625,18.383,7.642c2.816,0.005,5.611-0.471,8.267-1.408
				c48.583-17.008,110.267-67.45,151.8-108.983c26.385-28.004,50.796-57.803,73.058-89.183c9.595-13.635,19.921-26.74,30.933-39.258
				c4.94-5.105,12.818-5.964,18.742-2.042c13.042,6.16,28.542,3.532,38.825-6.583l3.608-3.608c6.7-6.714,6.7-17.586,0-24.3
				l-16.217-16.217c-2.504-2.543-3.211-6.354-1.783-9.625L417.118,180.573z M466.871,115.519
				c0.291-15.699-4.786-31.162-14.554-43.714l36.666-36.66C503.99,58.607,486.771,90.231,466.871,115.519z M456.999,17.089
				c7.173-0.061,14.126,2.026,20.027,5.88l-42.423,42.416c-0.285,0.285-0.546,0.593-0.788,0.915
				c-0.078,0.104-0.143,0.215-0.216,0.322c-0.151,0.221-0.298,0.444-0.428,0.68c-0.074,0.135-0.137,0.274-0.204,0.412
				c-0.106,0.218-0.206,0.438-0.293,0.666c-0.058,0.153-0.108,0.308-0.158,0.464c-0.04,0.125-0.092,0.243-0.126,0.37
				c-0.027,0.103-0.038,0.207-0.061,0.31c-0.037,0.16-0.068,0.32-0.095,0.481c-0.04,0.236-0.068,0.471-0.088,0.708
				c-0.013,0.157-0.025,0.313-0.03,0.471c-0.007,0.248,0.002,0.493,0.016,0.739c0.009,0.149,0.013,0.297,0.03,0.446
				c0.031,0.273,0.082,0.542,0.138,0.81c0.025,0.12,0.041,0.24,0.072,0.359c0.199,0.777,0.507,1.524,0.919,2.22
				c0.068,0.115,0.148,0.22,0.221,0.332c0.144,0.22,0.292,0.438,0.457,0.645c0.101,0.127,0.211,0.244,0.319,0.365
				c0.105,0.117,0.199,0.243,0.311,0.355c13.607,13.589,18.605,33.576,12.998,51.97c-2.369,7.769-6.471,14.713-11.836,20.427
				c-0.399,0.399-0.788,0.788-1.161,1.161c-3.179,3.199-6.745,5.948-10.597,8.197c-0.074,0.043-0.149,0.084-0.223,0.126
				c-0.439,0.254-0.882,0.501-1.329,0.741c-0.191,0.102-0.384,0.202-0.576,0.302c-0.333,0.174-0.667,0.345-1.004,0.512
				c-0.256,0.127-0.514,0.25-0.773,0.372c-0.278,0.132-0.556,0.261-0.836,0.388c-0.3,0.135-0.601,0.268-0.904,0.398
				c-0.243,0.104-0.488,0.206-0.732,0.307c-0.332,0.137-0.665,0.271-1,0.401c-0.219,0.085-0.44,0.167-0.66,0.249
				c-0.359,0.133-0.719,0.265-1.081,0.391c-0.201,0.07-0.402,0.135-0.604,0.202c-0.38,0.127-0.761,0.253-1.145,0.371
				c-0.191,0.059-0.384,0.113-0.576,0.169c-0.394,0.116-0.787,0.232-1.185,0.339c-0.206,0.055-0.415,0.105-0.622,0.158
				c-0.382,0.098-0.763,0.197-1.149,0.287c-0.592,0.137-1.187,0.265-1.785,0.381c-0.001,0-0.002,0-0.003,0
				c-0.119,0.023-0.238,0.038-0.357,0.06c-8.039,1.472-16.258,1.056-24.024-1.163c-3.58-1.025-7.063-2.433-10.386-4.214
				c-0.023-0.012-0.048-0.019-0.071-0.031c-8.851-4.829-16.121-12.109-20.937-20.968c0-0.001-0.001-0.001-0.001-0.002
				c-3.212-5.98-5.211-12.481-5.939-19.133c-0.567-5.174-0.365-10.44,0.631-15.625c1.974-10.155,6.953-19.483,14.292-26.775
				c16.517-16.517,60.367-60.367,95.908-60.367H456.999z M316.415,159.089c-5.368,5.399-11.598,9.865-18.433,13.216
				c-15.675,7.625-49.692,26.85-101.375,69.925C134.899,293.597,51.865,392.114,28.424,420.489
				c-0.312,0.305-0.599,0.633-0.858,0.983c-1.015,1.012-2.392,1.576-3.825,1.567h-0.025c-1.513-0.009-2.96-0.617-4.025-1.692
				c-2.388-2.312-3.243-5.786-2.2-8.941c16.075-45.85,64.758-105.142,104.967-145.35c27.424-25.776,56.59-49.632,87.292-71.4
				c14.34-10.054,28.085-20.93,41.167-32.575c10.095-9.931,12.362-25.36,5.55-37.775c-3.201-6.588-1.975-14.47,3.075-19.775
				l3.783-3.608l16.208,16.208c7.491,7.407,18.716,9.55,28.408,5.425l20.783-8.883c0.002,0.199,0.016,0.398,0.02,0.597
				c0.01,0.622,0.035,1.242,0.061,1.863c0.019,0.428,0.031,0.856,0.058,1.283c0.052,0.851,0.125,1.7,0.209,2.548
				c0.02,0.203,0.032,0.407,0.054,0.61c0.117,1.086,0.26,2.17,0.427,3.249c0.023,0.147,0.053,0.293,0.077,0.44
				c0.148,0.917,0.313,1.83,0.498,2.74c0.059,0.292,0.128,0.582,0.191,0.873c0.165,0.762,0.339,1.522,0.53,2.278
				c0.086,0.339,0.177,0.677,0.268,1.015c0.189,0.704,0.388,1.405,0.599,2.104c0.109,0.36,0.219,0.719,0.334,1.077
				c0.215,0.671,0.443,1.339,0.679,2.004c0.13,0.368,0.258,0.737,0.394,1.104c0.242,0.649,0.501,1.292,0.762,1.934
				c0.119,0.293,0.224,0.59,0.348,0.881L316.415,159.089z M410.132,248.706v0.167l-3.608,3.608c-5.278,5.039-13.125,6.28-19.7,3.117
				c-12.43-6.861-27.907-4.609-37.867,5.508c-11.64,13.072-22.511,26.809-32.558,41.142c-21.782,30.703-45.649,59.872-71.433,87.3
				c-40.2,40.2-99.5,88.883-145.392,104.95c-3.151,1.044-6.621,0.189-8.925-2.2c-1.074-1.062-1.683-2.506-1.692-4.017
				c0.017-1.61,0.732-3.133,1.958-4.175c28.967-23.967,127.475-106.95,178.883-168.683c43.075-51.683,62.3-85.692,69.933-101.367
				c3.35-6.837,7.816-13.067,13.217-18.433l17.815-17.816c0.977,0.413,1.965,0.796,2.958,1.164c0.138,0.051,0.276,0.103,0.414,0.153
				c0.995,0.361,1.996,0.702,3.005,1.017c0.057,0.018,0.115,0.034,0.173,0.052c1.005,0.311,2.018,0.599,3.036,0.864
				c0.064,0.017,0.128,0.035,0.193,0.052c1.029,0.265,2.064,0.504,3.105,0.722c0.126,0.026,0.253,0.051,0.379,0.077
				c2.062,0.419,4.144,0.746,6.24,0.977c0.179,0.02,0.358,0.04,0.538,0.058c1.009,0.104,2.021,0.189,3.035,0.248
				c0.15,0.009,0.3,0.013,0.449,0.021c0.879,0.046,1.759,0.074,2.641,0.086c0.154,0.002,0.306,0.014,0.46,0.015l-8.867,20.733
				c-4.166,9.698-2.03,20.954,5.4,28.45L410.132,248.706z"/>
		</g>
	</g>
</g>
<g>
</g>
<g>
</g>
<g>
</g>
<g>
</g>
<g>
</g>
<g>
</g>
<g>
</g>
<g>
</g>
<g>
</g>
<g>
</g>
<g>
</g>
<g>
</g>
<g>
</g>
<g>
</g>
<g>
</g>
</svg>
